<?xml version="1.0" encoding="utf-8"?>
<svg xmlns="http://www.w3.org/2000/svg" width="1200" height="400" viewBox="0 0 1200 400" preserveAspectRatio="none">
<path d="M0 400 L0 360 L0 372.5 L20 377.1 L40 381.3 L60 384.9 L80 387.9 L100 390.1 L120 391.4 L140 391.8 L160 391.1 L180 389.5 L200 386.9 L220 383.4 L240 379.1 L260 374.1 L280 368.6 L300 362.8 L320 356.7 L340 350.6 L360 344.8 L380 339.3 L400 334.4 L420 330.1 L440 326.7 L460 324.3 L480 322.9 L500 322.7 L520 323.5 L540 325.3 L560 328.3 L580 332.1 L600 336.7 L620 342.1 L640 347.9 L660 354.0 L680 360.3 L700 366.5 L720 372.5 L740 378.0 L760 383.0 L780 387.2 L800 390.5 L820 392.8 L840 394.2 L860 394.5 L880 393.7 L900 392.0 L920 389.3 L940 385.9 L960 381.7 L980 377.0 L1000 371.9 L1020 366.6 L1040 361.3 L1060 356.1 L1080 351.2 L1100 346.8 L1120 343.0 L1140 339.9 L1160 337.5 L1180 336.1 L1200 335.4 L1200 400 Z" fill="white" opacity="0.040"/>
<path d="M0 400 L0 332 L0 356.8 L20 361.0 L40 364.2 L60 366.3 L80 367.1 L100 366.6 L120 364.7 L140 361.5 L160 357.0 L180 351.5 L200 345.1 L220 338.1 L240 330.6 L260 323.0 L280 315.6 L300 308.6 L320 302.4 L340 297.1 L360 293.1 L380 290.4 L400 289.1 L420 289.4 L440 291.2 L460 294.5 L480 299.1 L500 304.9 L520 311.7 L540 319.2 L560 327.1 L580 335.2 L600 343.1 L620 350.6 L640 357.3 L660 363.1 L680 367.7 L700 371.0 L720 372.8 L740 373.1 L760 371.9 L780 369.4 L800 365.5 L820 360.6 L840 354.7 L860 348.1 L880 341.2 L900 334.1 L920 327.2 L940 320.7 L960 314.9 L980 309.9 L1000 306.0 L1020 303.2 L1040 301.7 L1060 301.5 L1080 302.4 L1100 304.5 L1120 307.6 L1140 311.6 L1160 316.2 L1180 321.2 L1200 326.3 L1200 400 Z" fill="white" opacity="0.065"/>
<path d="M0 400 L0 304 L0 339.5 L20 341.2 L40 341.2 L60 339.4 L80 335.9 L100 330.7 L120 324.1 L140 316.3 L160 307.7 L180 298.7 L200 289.6 L220 280.9 L240 273.0 L260 266.3 L280 261.1 L300 257.6 L320 256.0 L340 256.5 L360 259.1 L380 263.6 L400 269.9 L420 277.6 L440 286.5 L460 296.2 L480 306.3 L500 316.2 L520 325.6 L540 334.1 L560 341.2 L580 346.7 L600 350.3 L620 352.0 L640 351.5 L660 349.1 L680 344.8 L700 338.9 L720 331.5 L740 323.2 L760 314.3 L780 305.2 L800 296.3 L820 288.0 L840 280.7 L860 274.7 L880 270.3 L900 267.5 L920 266.5 L940 267.2 L960 269.6 L980 273.5 L1000 278.6 L1020 284.7 L1040 291.3 L1060 298.1 L1080 304.9 L1100 311.1 L1120 316.6 L1140 321.1 L1160 324.3 L1180 326.1 L1200 326.6 L1200 400 Z" fill="white" opacity="0.090"/>
<path d="M0 400 L0 276 L0 313.3 L20 310.0 L40 304.5 L60 297.1 L80 288.3 L100 278.3 L120 267.8 L140 257.3 L160 247.4 L180 238.7 L200 231.6 L220 226.7 L240 224.1 L260 224.1 L280 226.8 L300 232.0 L320 239.6 L340 249.1 L360 260.0 L380 271.9 L400 284.0 L420 295.9 L440 306.7 L460 316.1 L480 323.5 L500 328.4 L520 330.8 L540 330.4 L560 327.3 L580 321.7 L600 314.0 L620 304.5 L640 293.7 L660 282.3 L680 270.9 L700 260.0 L720 250.3 L740 242.2 L760 236.0 L780 232.2 L800 230.7 L820 231.7 L840 234.9 L860 240.2 L880 247.1 L900 255.2 L920 264.0 L940 272.9 L960 281.5 L980 289.2 L1000 295.7 L1020 300.5 L1040 303.5 L1060 304.6 L1080 303.8 L1100 301.2 L1120 297.1 L1140 291.8 L1160 285.8 L1180 279.4 L1200 273.2 L1200 400 Z" fill="white" opacity="0.115"/>
<path d="M0 400 L0 248 L0 270.8 L20 261.3 L40 250.3 L60 238.6 L80 226.8 L100 215.8 L120 206.3 L140 199.0 L160 194.4 L180 192.9 L200 194.6 L220 199.7 L240 207.7 L260 218.4 L280 231.0 L300 244.9 L320 259.2 L340 273.0 L360 285.5 L380 296.0 L400 303.7 L420 308.3 L440 309.4 L460 307.0 L480 301.2 L500 292.4 L520 281.1 L540 268.1 L560 254.1 L580 240.0 L600 226.7 L620 214.9 L640 205.4 L660 198.6 L680 194.9 L700 194.4 L720 197.1 L740 202.8 L760 210.9 L780 220.8 L800 231.9 L820 243.5 L840 254.6 L860 264.7 L880 273.1 L900 279.3 L920 283.0 L940 284.1 L960 282.7 L980 278.9 L1000 273.1 L1020 265.9 L1040 257.9 L1060 249.8 L1080 242.2 L1100 235.6 L1120 230.6 L1140 227.5 L1160 226.5 L1180 227.8 L1200 231.0 L1200 400 Z" fill="white" opacity="0.140"/>
<path d="M0 400 L0 220 L0 211.7 L20 198.9 L40 186.9 L60 176.6 L80 168.9 L100 164.5 L120 163.9 L140 167.3 L160 174.6 L180 185.3 L200 198.8 L220 214.2 L240 230.5 L260 246.4 L280 260.9 L300 273.0 L320 281.7 L340 286.4 L360 286.7 L380 282.6 L400 274.4 L420 262.6 L440 248.0 L460 231.6 L480 214.6 L500 198.2 L520 183.4 L540 171.3 L560 162.7 L580 158.1 L600 157.7 L620 161.4 L640 169.0 L660 179.7 L680 192.7 L700 207.0 L720 221.5 L740 235.2 L760 247.1 L780 256.4 L800 262.5 L820 265.2 L840 264.3 L860 260.2 L880 253.3 L900 244.4 L920 234.2 L940 223.7 L960 213.7 L980 205.2 L1000 198.7 L1020 194.8 L1040 193.7 L1060 195.4 L1080 199.6 L1100 205.8 L1120 213.5 L1140 221.7 L1160 229.7 L1180 236.6 L1200 241.8 L1200 400 Z" fill="white" opacity="0.165"/>
<path d="M0 400 L0 192 L0 150.1 L20 141.8 L40 137.2 L60 137.1 L80 141.7 L100 150.7 L120 163.5 L140 179.4 L160 197.0 L180 214.9 L200 231.7 L220 246.0 L240 256.5 L260 262.3 L280 262.8 L300 258.0 L320 248.0 L340 233.7 L360 216.2 L380 196.7 L400 176.9 L420 158.2 L440 142.2 L460 130.1 L480 122.7 L500 120.6 L520 123.9 L540 132.3 L560 144.9 L580 160.7 L600 178.3 L620 196.3 L640 213.3 L660 227.8 L680 238.9 L700 245.7 L720 247.9 L740 245.4 L760 238.8 L780 228.8 L800 216.5 L820 203.0 L840 189.6 L860 177.6 L880 167.9 L900 161.4 L920 158.5 L940 159.2 L960 163.4 L980 170.4 L1000 179.3 L1020 189.2 L1040 198.8 L1060 207.1 L1080 213.2 L1100 216.5 L1120 216.4 L1140 213.0 L1160 206.6 L1180 197.9 L1200 187.6 L1200 400 Z" fill="white" opacity="0.190"/>
<path d="M0 400 L0 164 L0 112.3 L20 117.1 L40 126.9 L60 141.2 L80 158.6 L100 177.6 L120 196.5 L140 213.4 L160 226.6 L180 234.8 L200 237.1 L220 232.9 L240 222.6 L260 207.0 L280 187.3 L300 165.2 L320 142.7 L340 121.7 L360 104.3 L380 91.8 L400 85.5 L420 85.8 L440 92.7 L460 105.5 L480 123.1 L500 143.7 L520 165.6 L540 186.7 L560 205.1 L580 219.4 L600 228.4 L620 231.3 L640 228.3 L660 219.8 L680 206.8 L700 190.8 L720 173.5 L740 156.5 L760 141.5 L780 129.9 L800 122.6 L820 120.2 L840 122.5 L860 129.0 L880 138.8 L900 150.6 L920 162.9 L940 174.2 L960 183.3 L980 189.1 L1000 190.9 L1020 188.7 L1040 182.7 L1060 173.7 L1080 162.9 L1100 151.6 L1120 141.3 L1140 133.2 L1160 128.6 L1180 128.1 L1200 132.2 L1200 400 Z" fill="white" opacity="0.215"/>
<path d="M0 400 L0 136 L0 116.8 L20 134.7 L40 154.4 L60 173.5 L80 190.1 L100 202.0 L120 207.7 L140 206.4 L160 197.8 L180 182.6 L200 162.1 L220 138.2 L240 113.4 L260 90.1 L280 70.7 L300 57.2 L320 51.1 L340 53.0 L360 62.8 L380 79.6 L400 101.6 L420 126.6 L440 152.3 L460 176.0 L480 195.3 L500 208.6 L520 214.6 L540 212.9 L560 203.9 L580 188.8 L600 169.3 L620 147.6 L640 126.0 L660 106.8 L680 91.9 L700 82.6 L720 79.5 L740 82.8 L760 91.5 L780 104.4 L800 119.7 L820 135.4 L840 149.6 L860 160.5 L880 167.1 L900 168.7 L920 165.2 L940 157.4 L960 146.5 L980 134.1 L1000 122.0 L1020 112.0 L1040 105.6 L1060 103.8 L1080 107.0 L1100 115.1 L1120 127.3 L1140 142.1 L1160 157.7 L1180 172.1 L1200 183.6 L1200 400 Z" fill="white" opacity="0.240"/>
<path d="M0 400 L0 108 L0 144.9 L20 161.0 L40 171.8 L60 175.6 L80 171.5 L100 159.5 L120 140.6 L140 116.8 L160 90.6 L180 65.1 L200 43.2 L220 27.6 L240 20.3 L260 22.2 L280 33.4 L300 52.8 L320 78.3 L340 107.2 L360 136.2 L380 162.2 L400 182.3 L420 194.4 L440 197.2 L460 190.6 L480 175.5 L500 153.7 L520 127.9 L540 101.0 L560 76.1 L580 56.0 L600 42.6 L620 37.2 L640 40.1 L660 50.4 L680 66.4 L700 85.9 L720 106.3 L740 125.0 L760 139.6 L780 148.6 L800 151.1 L820 147.3 L840 138.0 L860 124.9 L880 110.2 L900 96.3 L920 85.1 L940 78.6 L960 77.6 L980 82.5 L1000 92.5 L1020 106.3 L1040 121.8 L1060 136.6 L1080 148.5 L1100 155.5 L1120 156.2 L1140 150.1 L1160 137.4 L1180 119.5 L1200 98.3 L1200 400 Z" fill="white" opacity="0.265"/>
<path d="M0 400 L0 80 L0 139.8 L20 134.4 L40 120.7 L60 100.0 L80 74.7 L100 48.1 L120 23.7 L140 4.9 L160 -5.6 L180 -5.9 L200 4.3 L220 24.2 L240 51.5 L260 83.1 L280 114.9 L300 143.2 L320 164.5 L340 175.9 L360 176.2 L380 165.2 L400 144.5 L420 116.6 L440 84.9 L460 53.6 L480 26.2 L500 6.2 L520 -4.3 L540 -4.4 L560 5.6 L580 23.9 L600 47.8 L620 73.9 L640 98.7 L660 119.1 L680 132.5 L700 137.7 L720 134.6 L740 124.0 L760 108.2 L780 89.9 L800 72.0 L820 57.4 L840 48.3 L860 45.9 L880 50.4 L900 60.9 L920 75.4 L940 91.4 L960 106.0 L980 116.6 L1000 121.1 L1020 118.3 L1040 108.3 L1060 92.1 L1080 71.9 L1100 50.6 L1120 31.3 L1140 17.1 L1160 10.4 L1180 12.7 L1200 24.3 L1200 400 Z" fill="white" opacity="0.290"/>
<path d="M0 400 L0 52 L0 64.2 L20 39.2 L40 13.6 L60 -8.7 L80 -24.0 L100 -29.3 L120 -23.2 L140 -6.1 L160 20.3 L180 52.6 L200 86.4 L220 117.0 L240 140.1 L260 152.2 L280 151.5 L300 137.9 L320 113.0 L340 80.0 L360 43.5 L380 8.4 L400 -20.8 L420 -40.1 L440 -47.1 L460 -41.3 L480 -23.6 L500 3.0 L520 34.7 L540 66.9 L560 95.1 L580 115.7 L600 126.2 L620 125.6 L640 114.9 L660 96.3 L680 73.0 L700 49.2 L720 28.4 L740 14.0 L760 7.7 L780 10.1 L800 20.2 L820 35.7 L840 53.6 L860 70.2 L880 82.4 L900 87.8 L920 85.1 L940 74.6 L960 58.0 L980 37.9 L1000 18.1 L1020 2.0 L1040 -7.0 L1060 -7.0 L1080 2.8 L1100 21.7 L1120 47.2 L1140 75.9 L1160 103.5 L1180 125.9 L1200 139.4 L1200 400 Z" fill="white" opacity="0.315"/>
</svg>