<?xml version="1.0" encoding="utf-8"?>
<svg xmlns="http://www.w3.org/2000/svg" fill="none" height="650" viewBox="0 0 650 650" width="650">
<path d="M475.875 325C475.875 404.237 458.977 475.966 431.663 527.881C404.345 579.803 366.628 611.875 325 611.875C283.372 611.875 245.655 579.803 218.337 527.881C191.023 475.966 174.125 404.237 174.125 325C174.125 245.763 191.023 174.034 218.337 122.119C245.655 70.1973 283.372 38.125 325 38.125C366.628 38.125 404.345 70.1973 431.663 122.119C458.977 174.034 475.875 245.763 475.875 325Z" stroke="#3F83F8" stroke-width="0.25"/>
<path d="M325.378 475.595C246.141 475.595 174.412 458.697 122.497 431.382C70.5752 404.065 38.503 366.348 38.503 324.72C38.503 283.092 70.5752 245.375 122.497 218.057C174.412 190.743 246.141 173.845 325.378 173.845C404.615 173.845 476.344 190.743 528.259 218.057C580.181 245.375 612.253 283.092 612.253 324.72C612.253 366.348 580.181 404.065 528.259 431.382C476.344 458.697 404.615 475.595 325.378 475.595Z" stroke="#3F83F8" stroke-width="0.25"/>
<path d="M431.795 218.582C487.824 274.611 526.595 337.28 543.991 393.304C561.388 449.334 557.397 498.683 527.961 528.118C498.526 557.554 449.178 561.545 393.147 544.148C337.123 526.752 274.454 487.981 218.425 431.952C162.397 375.923 123.625 313.254 106.23 257.23C88.8321 201.2 92.8235 151.851 122.259 122.416C151.694 92.9804 201.043 88.989 257.073 106.386C313.097 123.782 375.766 162.554 431.795 218.582Z" stroke="#3F83F8" stroke-width="0.25"/>
<path d="M431.864 431.486C375.835 487.515 313.166 526.287 257.142 543.682C201.112 561.08 151.763 557.088 122.328 527.653C92.8925 498.217 88.9011 448.869 106.299 392.839C123.694 336.815 162.466 274.146 218.494 218.117C274.523 162.088 337.192 123.317 393.216 105.921C449.246 88.5235 498.595 92.5149 528.03 121.95C557.466 151.386 561.457 200.734 544.06 256.765C526.664 312.789 487.893 375.457 431.864 431.486Z" stroke="#3F83F8" stroke-width="0.25"/>
<path d="M382.984 186.027C456.189 216.349 515.991 259.411 553.502 304.513C591.017 349.621 606.214 396.74 590.284 435.199C574.354 473.659 530.289 496.231 471.866 501.6C413.45 506.968 340.714 495.13 267.509 464.807C194.304 434.485 134.501 391.423 96.9902 346.321C59.4752 301.214 44.278 254.094 60.2083 215.635C76.1386 177.176 120.203 154.603 178.626 149.234C237.043 143.866 309.778 155.704 382.984 186.027Z" stroke="#3F83F8" stroke-width="0.25"/>
<path d="M464.522 382.698C434.199 455.903 391.138 515.706 346.036 553.216C300.928 590.732 253.809 605.929 215.349 589.998C176.89 574.068 154.318 530.004 148.949 471.581C143.581 413.164 155.419 340.428 185.741 267.223C216.064 194.018 259.125 134.215 304.228 96.7046C349.335 59.1896 396.455 43.9923 434.914 59.9226C473.373 75.853 495.946 119.918 501.314 178.341C506.682 236.757 494.845 309.493 464.522 382.698Z" stroke="#3F83F8" stroke-width="0.25"/>
<path d="M267.652 185.919C340.858 155.597 413.593 143.759 472.01 149.127C530.433 154.496 574.497 177.068 590.428 215.527C606.358 253.987 591.161 301.106 553.646 346.214C516.135 391.316 456.332 434.377 383.127 464.7C309.922 495.022 237.186 506.86 178.77 501.492C120.347 496.124 76.2821 473.551 60.3518 435.092C44.4214 396.633 59.6187 349.513 97.1337 304.406C134.645 259.303 194.447 216.242 267.652 185.919Z" stroke="#3F83F8" stroke-width="0.25"/>
<path d="M464.377 267.331C494.699 340.536 506.537 413.272 501.169 471.688C495.8 530.111 473.228 574.175 434.769 590.106C396.309 606.036 349.19 590.839 304.082 553.324C258.98 515.813 215.919 456.01 185.596 382.805C155.273 309.6 143.436 236.864 148.804 178.448C154.172 120.025 176.745 75.9603 215.204 60.03C253.663 44.0997 300.783 59.2969 345.89 96.8119C390.993 134.323 434.054 194.125 464.377 267.331Z" stroke="#3F83F8" stroke-width="0.25"/>
<path d="M475.731 318.433C479.187 397.594 465.434 469.992 440.41 523.05C415.384 576.113 379.101 609.8 337.513 611.616C295.925 613.432 256.844 583.035 227.288 532.355C197.735 481.68 177.725 410.756 174.268 331.595C170.812 252.434 184.565 180.036 209.589 126.978C234.616 73.9147 270.898 40.2277 312.486 38.4119C354.075 36.5961 393.155 66.9927 422.711 117.673C452.264 168.348 472.275 239.271 475.731 318.433Z" stroke="#3F83F8" stroke-width="0.25"/>
<path d="M331.946 475.449C252.785 478.905 180.387 465.152 127.329 440.128C74.2658 415.101 40.5789 378.819 38.7631 337.231C36.9473 295.642 67.3439 256.562 118.024 227.006C168.699 197.453 239.623 177.442 318.784 173.986C397.945 170.53 470.343 184.283 523.401 209.307C576.464 234.334 610.151 270.616 611.967 312.204C613.783 353.792 583.386 392.873 532.706 422.429C482.031 451.982 411.107 471.993 331.946 475.449Z" stroke="#3F83F8" stroke-width="0.25"/>
<path d="M427.051 214.039C485.471 267.571 526.939 328.489 546.762 383.701C566.587 438.919 564.751 488.395 536.628 519.086C508.504 549.777 459.377 555.917 402.641 540.98C345.912 526.045 281.611 490.044 223.192 436.513C164.772 382.981 123.304 322.063 103.481 266.851C83.6565 211.633 85.4916 162.157 113.615 131.466C141.739 100.775 190.866 94.6344 247.602 109.571C304.331 124.507 368.632 160.508 427.051 214.039Z" stroke="#3F83F8" stroke-width="0.25"/>
<path d="M436.407 426.738C382.875 485.157 321.957 526.625 266.745 546.448C211.527 566.273 162.052 564.438 131.36 536.314C100.669 508.191 94.5286 459.063 109.466 402.328C124.401 345.598 160.402 281.298 213.933 222.878C267.465 164.459 328.383 122.991 383.595 103.168C438.813 83.3429 488.289 85.178 518.98 113.301C549.671 141.425 555.812 190.552 540.875 247.288C525.939 304.018 489.938 368.318 436.407 426.738Z" stroke="#3F83F8" stroke-width="0.25"/>
<path d="M376.866 183.644C451.324 210.744 512.948 251.156 552.391 294.579C591.838 338.008 609.076 384.419 594.838 423.537C580.601 462.654 537.562 487.127 479.429 495.039C421.303 502.95 348.12 494.297 273.662 467.196C199.203 440.095 137.579 399.684 98.1369 356.26C58.69 312.832 41.4519 266.42 55.6895 227.303C69.9271 188.185 112.965 163.712 171.098 155.8C229.225 147.889 302.408 156.543 376.866 183.644Z" stroke="#3F83F8" stroke-width="0.25"/>
<path d="M466.906 376.571C439.805 451.029 399.393 512.653 355.97 552.096C312.542 591.543 266.13 608.781 227.013 594.543C187.895 580.305 163.422 537.267 155.51 479.134C147.599 421.008 156.253 347.825 183.353 273.366C210.454 198.908 250.866 137.284 294.289 97.8418C337.717 58.3949 384.129 41.1568 423.247 55.3944C462.364 69.632 486.837 112.67 494.749 170.803C502.66 228.93 494.006 302.113 466.906 376.571Z" stroke="#3F83F8" stroke-width="0.25"/>
<path d="M261.64 188.567C333.453 155.08 405.603 140.081 464.198 142.896C522.8 145.711 567.807 166.34 585.4 204.068C602.992 241.795 589.865 289.533 554.353 336.234C518.845 382.93 460.978 428.558 389.165 462.045C317.352 495.532 245.202 510.531 186.607 507.717C128.006 504.901 82.9982 484.273 65.4055 446.545C47.8127 408.817 60.9402 361.079 96.452 314.379C131.96 267.683 189.827 222.054 261.64 188.567Z" stroke="#3F83F8" stroke-width="0.25"/>
<path d="M461.728 261.32C495.215 333.133 510.214 405.283 507.399 463.878C504.584 522.479 483.955 567.487 446.228 585.079C408.5 602.672 360.762 589.545 314.061 554.033C267.366 518.525 221.737 460.658 188.25 388.845C154.763 317.032 139.764 244.882 142.579 186.287C145.394 127.685 166.023 82.6781 203.75 65.0853C241.478 47.4926 289.216 60.62 335.917 96.1318C382.612 131.64 428.241 189.507 461.728 261.32Z" stroke="#3F83F8" stroke-width="0.25"/>
<path d="M475.301 311.878C482.207 390.813 471.625 463.742 448.939 517.841C426.251 571.946 391.472 607.183 350.003 610.811C308.533 614.439 268.164 585.776 236.426 536.433C204.69 487.096 181.605 417.113 174.699 338.177C167.793 259.242 178.375 186.313 201.061 132.215C223.749 78.1101 258.528 42.8726 299.997 39.2444C341.467 35.6163 381.836 64.2793 413.574 113.622C445.31 162.959 468.395 232.943 475.301 311.878Z" stroke="#3F83F8" stroke-width="0.25"/>
<path d="M338.502 475.017C259.566 481.922 186.637 471.34 132.539 448.655C78.4343 425.966 43.1968 391.188 39.5687 349.718C35.9406 308.249 64.6035 267.88 113.946 236.141C163.284 204.406 233.267 181.321 312.202 174.415C391.138 167.509 464.067 178.091 518.165 200.777C572.27 223.465 607.507 258.243 611.135 299.713C614.763 341.182 586.1 381.551 536.758 413.29C487.42 445.025 417.437 468.111 338.502 475.017Z" stroke="#3F83F8" stroke-width="0.25"/>
<path d="M422.114 209.707C482.813 260.64 526.898 319.691 549.111 373.986C571.325 428.287 571.65 477.795 544.892 509.684C518.134 541.573 469.321 549.85 411.988 537.402C354.661 524.956 288.851 491.794 228.153 440.861C167.454 389.929 123.368 330.878 101.156 276.583C78.9409 222.282 78.6161 172.773 105.374 140.885C132.132 108.996 180.945 100.718 238.278 113.166C295.605 125.613 361.415 158.775 422.114 209.707Z" stroke="#3F83F8" stroke-width="0.25"/>
<path d="M440.738 421.795C389.806 482.494 330.754 526.58 276.46 548.792C222.159 571.007 172.65 571.331 140.761 544.574C108.873 517.816 100.595 469.003 113.043 411.669C125.49 354.342 158.652 288.533 209.584 227.834C260.517 167.135 319.568 123.049 373.863 100.837C428.163 78.6224 477.672 78.2976 509.561 105.056C541.45 131.814 549.727 180.626 537.279 237.96C524.832 295.287 491.671 361.096 440.738 421.795Z" stroke="#3F83F8" stroke-width="0.25"/>
<path d="M370.651 181.53C446.22 205.357 509.548 243.042 550.847 284.704C592.151 326.37 611.397 371.986 598.879 411.687C586.361 451.388 544.432 477.715 486.699 488.155C428.973 498.594 355.482 493.141 279.913 469.314C204.343 445.487 141.015 407.802 99.7162 366.14C58.4125 324.474 39.1663 278.858 51.6841 239.157C64.2019 199.456 106.132 173.128 163.864 162.688C221.59 152.249 295.081 157.703 370.651 181.53Z" stroke="#3F83F8" stroke-width="0.25"/>
<path d="M469.02 370.346C445.193 445.915 407.507 509.243 365.846 550.542C324.18 591.846 278.564 611.092 238.863 598.575C199.161 586.057 172.834 544.127 162.394 486.394C151.955 428.668 157.409 355.177 181.236 279.608C205.063 204.039 242.748 140.711 284.41 99.4115C326.076 58.1079 371.691 38.8617 411.393 51.3795C451.094 63.8973 477.421 105.827 487.861 163.56C498.3 221.286 492.847 294.777 469.02 370.346Z" stroke="#3F83F8" stroke-width="0.25"/>
<path d="M255.749 191.474C326.033 154.887 397.46 136.755 456.122 137.011C514.791 137.268 560.655 155.914 579.876 192.838C599.098 229.763 588.065 278.027 554.624 326.233C521.187 374.433 465.365 422.543 395.082 459.13C324.798 495.717 253.37 513.85 194.708 513.593C136.04 513.337 90.1756 494.691 70.954 457.766C51.7323 420.842 62.765 372.577 96.2059 324.372C129.643 276.172 185.465 228.062 255.749 191.474Z" stroke="#3F83F8" stroke-width="0.25"/>
<path d="M458.82 255.43C495.408 325.714 513.54 397.141 513.283 455.803C513.027 514.472 494.381 560.336 457.456 579.558C420.532 598.779 372.267 587.747 324.062 554.306C275.862 520.869 227.752 465.047 191.165 394.763C154.577 324.479 136.445 253.052 136.701 194.39C136.958 135.721 155.604 89.8571 192.528 70.6354C229.453 51.4138 277.717 62.4465 325.923 95.8874C374.123 129.325 422.233 185.146 458.82 255.43Z" stroke="#3F83F8" stroke-width="0.25"/>
<path d="M474.585 305.349C484.927 383.907 477.536 457.229 457.232 512.265C436.925 567.308 403.717 604.029 362.445 609.462C321.173 614.896 279.593 588.021 245.732 540.11C211.875 492.204 185.759 423.294 175.416 344.735C165.074 266.176 172.465 192.855 192.769 137.818C213.076 82.7754 246.284 46.0545 287.556 40.6209C328.828 35.1874 370.408 62.0622 404.269 109.974C438.126 157.88 464.242 226.79 474.585 305.349Z" stroke="#3F83F8" stroke-width="0.25"/>
<path d="M345.032 474.299C266.473 484.641 193.152 477.25 138.115 456.946C83.0724 436.639 46.3514 403.431 40.9179 362.159C35.4843 320.887 62.3592 279.307 110.271 245.446C158.177 211.589 227.087 185.473 305.645 175.13C384.204 164.788 457.526 172.179 512.562 192.483C567.605 212.79 604.326 245.998 609.759 287.27C615.193 328.542 588.318 370.122 540.407 403.983C492.501 437.84 423.591 463.956 345.032 474.299Z" stroke="#3F83F8" stroke-width="0.25"/>
<path d="M416.992 205.595C479.854 253.831 526.474 310.903 551.033 364.177C575.596 417.458 578.079 466.905 552.738 499.931C527.396 532.956 478.991 543.355 421.169 533.42C363.354 523.485 296.161 493.226 233.298 444.989C170.435 396.753 123.815 339.681 99.256 286.407C74.6939 233.127 72.2099 183.679 97.5514 150.654C122.893 117.628 171.298 107.229 229.12 117.165C286.935 127.099 354.129 157.359 416.992 205.595Z" stroke="#3F83F8" stroke-width="0.25"/>
<path d="M444.849 416.668C396.613 479.531 339.541 526.151 286.267 550.71C232.987 575.272 183.54 577.756 150.514 552.415C117.488 527.073 107.09 478.668 117.025 420.846C126.959 363.031 157.219 295.837 205.455 232.975C253.691 170.112 310.763 123.492 364.038 98.9329C417.318 74.3708 466.765 71.8869 499.791 97.2284C532.816 122.57 543.215 170.975 533.28 228.797C523.346 286.612 493.086 353.806 444.849 416.668Z" stroke="#3F83F8" stroke-width="0.25"/>
<path d="M364.348 179.689C440.885 200.197 505.797 235.084 548.874 274.905C591.956 314.729 613.173 359.462 602.399 399.672C591.625 439.881 550.884 468.012 493.661 480.961C436.445 493.908 362.787 491.665 286.25 471.157C209.713 450.649 144.801 415.762 101.724 375.942C58.6426 336.117 37.425 291.384 48.1991 251.174C58.9732 210.965 99.7146 182.834 156.937 169.885C214.153 156.938 287.812 159.181 364.348 179.689Z" stroke="#3F83F8" stroke-width="0.25"/>
<path d="M470.86 364.035C450.352 440.572 415.465 505.483 375.644 548.56C335.82 591.642 291.087 612.859 250.877 602.085C210.668 591.311 182.537 550.57 169.588 493.347C156.641 436.132 158.884 362.473 179.392 285.936C199.9 209.399 234.787 144.488 274.607 101.411C314.432 58.3289 359.165 37.1113 399.375 47.8854C439.584 58.6596 467.715 99.4009 480.664 156.623C493.611 213.839 491.368 287.498 470.86 364.035Z" stroke="#3F83F8" stroke-width="0.25"/>
<path d="M249.99 194.636C318.611 155.018 389.179 133.787 447.796 131.485C506.42 129.182 553.054 145.809 573.868 181.86C594.682 217.911 585.765 266.611 554.459 316.229C523.156 365.842 469.486 416.341 400.865 455.959C332.244 495.578 261.675 516.808 203.058 519.111C144.434 521.414 97.8002 504.786 76.9862 468.735C56.1722 432.684 65.0891 383.984 96.3955 334.366C127.698 284.753 181.369 234.255 249.99 194.636Z" stroke="#3F83F8" stroke-width="0.25"/>
<path d="M455.657 249.673C495.276 318.294 516.506 388.863 518.809 447.48C521.112 506.104 504.484 552.738 468.433 573.552C432.382 594.366 383.682 585.449 334.064 554.142C284.451 522.84 233.953 469.169 194.334 400.548C154.716 331.927 133.485 261.359 131.183 202.742C128.88 144.118 145.507 97.4838 181.558 76.6698C217.609 55.8558 266.309 64.7727 315.927 96.0791C365.54 127.382 416.039 181.052 455.657 249.673Z" stroke="#3F83F8" stroke-width="0.25"/>
<path d="M473.585 298.857C487.345 376.889 483.159 450.463 465.275 506.333C447.388 562.209 415.813 600.344 374.818 607.572C333.822 614.801 291.109 589.766 255.19 543.377C219.276 496.993 190.179 429.288 176.42 351.255C162.66 273.222 166.846 199.648 184.73 143.778C202.617 87.9021 234.192 49.7676 275.187 42.539C316.183 35.3103 358.896 60.3459 394.815 106.735C430.729 153.118 459.826 220.824 473.585 298.857Z" stroke="#3F83F8" stroke-width="0.25"/>
<path d="M351.525 473.297C273.492 487.056 199.918 482.871 144.048 464.986C88.1723 447.1 50.0378 415.525 42.8092 374.529C35.5806 333.534 60.6161 290.82 107.005 254.902C153.389 218.988 221.094 189.89 299.127 176.131C377.16 162.372 450.734 166.558 506.603 184.442C562.479 202.328 600.614 233.903 607.843 274.899C615.071 315.894 590.036 358.608 543.647 394.526C497.263 430.441 429.558 459.538 351.525 473.297Z" stroke="#3F83F8" stroke-width="0.25"/>
<path d="M411.696 201.71C476.603 247.158 525.667 302.143 552.527 354.295C579.39 406.453 584.028 455.745 560.152 489.844C536.275 523.944 488.369 536.444 430.169 529.04C371.975 521.638 303.526 494.338 238.619 448.889C173.712 403.441 124.647 348.457 97.7875 296.304C70.9248 244.146 66.2863 194.855 90.1631 160.755C114.04 126.655 161.946 114.155 220.146 121.559C278.339 128.962 346.789 156.262 411.696 201.71Z" stroke="#3F83F8" stroke-width="0.25"/>
<path d="M448.734 411.368C403.286 476.274 348.301 525.339 296.149 552.199C243.991 579.062 194.699 583.7 160.6 559.823C126.5 535.947 114 488.041 121.404 429.841C128.806 371.647 156.106 303.198 201.555 238.291C247.003 173.384 301.987 124.319 354.14 97.4594C406.298 70.5966 455.589 65.9581 489.689 89.835C523.789 113.712 536.289 161.618 528.885 219.818C521.482 278.011 494.182 346.461 448.734 411.368Z" stroke="#3F83F8" stroke-width="0.25"/>
<path d="M357.973 178.125C435.331 195.275 501.703 227.298 546.476 265.201C591.254 303.109 614.402 346.874 605.392 387.515C596.382 428.156 556.907 458.037 500.304 473.469C443.707 488.9 370.021 489.872 292.662 472.722C215.303 455.572 148.932 423.55 104.159 385.646C59.3811 347.739 36.2325 303.974 45.2424 263.333C54.2523 222.691 93.7279 192.81 150.331 177.378C206.928 161.948 280.614 160.975 357.973 178.125Z" stroke="#3F83F8" stroke-width="0.25"/>
<path d="M472.424 357.649C455.274 435.008 423.251 501.379 385.348 546.152C347.44 590.93 303.675 614.079 263.034 605.069C222.393 596.059 192.512 556.583 177.08 499.98C161.649 443.384 160.677 369.697 177.827 292.339C194.977 214.98 226.999 148.609 264.903 103.836C302.81 59.0577 346.575 35.9091 387.216 44.9191C427.858 53.929 457.739 93.4045 473.171 150.008C488.601 206.604 489.574 280.291 472.424 357.649Z" stroke="#3F83F8" stroke-width="0.25"/>
<path d="M244.375 198.046C311.202 155.472 380.778 131.184 439.239 126.327C497.706 121.469 545.021 136.046 567.388 171.155C589.755 206.264 582.97 255.306 553.858 306.243C524.749 357.174 473.333 409.966 406.505 452.54C339.677 495.113 270.102 519.402 211.641 524.259C153.174 529.117 105.859 514.539 83.492 479.431C61.1253 444.322 67.9094 395.279 97.0217 344.343C126.131 293.412 177.547 240.62 244.375 198.046Z" stroke="#3F83F8" stroke-width="0.25"/>
<path d="M452.247 244.06C494.821 310.887 519.11 380.463 523.967 438.924C528.825 497.391 514.247 544.706 479.138 567.073C444.03 589.44 394.987 582.655 344.051 553.543C293.12 524.434 240.328 473.018 197.754 406.19C155.18 339.362 130.892 269.787 126.034 211.326C121.176 152.859 135.754 105.544 170.863 83.1771C205.972 60.8104 255.014 67.5945 305.951 96.7068C356.882 125.816 409.673 177.232 452.247 244.06Z" stroke="#3F83F8" stroke-width="0.25"/>
<path d="M472.303 292.414C489.453 369.773 488.481 443.459 473.05 500.056C457.618 556.659 427.737 596.135 387.096 605.145C346.454 614.154 302.69 591.006 264.782 546.228C226.878 501.455 194.856 435.083 177.706 357.725C160.556 280.366 161.528 206.68 176.959 150.083C192.391 93.4801 222.272 54.0046 262.913 44.9947C303.555 35.9847 347.319 59.1333 385.227 103.911C423.131 148.684 455.153 215.056 472.303 292.414Z" stroke="#3F83F8" stroke-width="0.25"/>
<path d="M357.968 472.013C280.61 489.163 206.923 488.19 150.326 472.76C93.7233 457.328 54.2478 427.446 45.2379 386.805C36.228 346.164 59.3765 302.399 104.154 264.492C148.927 226.588 215.299 194.565 292.657 177.415C370.016 160.266 443.702 161.238 500.299 176.668C556.902 192.101 596.378 221.982 605.388 262.623C614.398 303.264 591.249 347.029 546.471 384.937C501.698 422.84 435.327 454.863 357.968 472.013Z" stroke="#3F83F8" stroke-width="0.25"/>
<path d="M406.235 198.06C473.063 240.634 524.479 293.425 553.588 344.356C582.7 395.293 589.485 444.336 567.118 479.444C544.751 514.553 497.436 529.131 438.969 524.273C380.508 519.415 310.932 495.127 244.105 452.553C177.277 409.979 125.861 357.188 96.7518 306.257C67.6395 255.32 60.8553 206.277 83.222 171.169C105.589 136.06 152.904 121.482 211.371 126.34C269.832 131.198 339.407 155.486 406.235 198.06Z" stroke="#3F83F8" stroke-width="0.25"/>
<path d="M452.383 405.902C409.809 472.73 357.018 524.146 306.087 553.255C255.15 582.368 206.107 589.152 170.999 566.785C135.89 544.418 121.312 497.104 126.17 438.636C131.028 380.175 155.316 310.6 197.89 243.772C240.464 176.944 293.256 125.528 344.187 96.419C395.123 67.3067 444.166 60.5225 479.274 82.8892C514.383 105.256 528.961 152.571 524.103 211.038C519.246 269.499 494.957 339.075 452.383 405.902Z" stroke="#3F83F8" stroke-width="0.25"/>
<path d="M351.534 176.841C429.567 190.6 497.273 219.697 543.656 255.611C590.045 291.53 615.081 334.243 607.852 375.239C600.623 416.234 562.489 447.809 506.613 465.696C450.743 483.58 377.169 487.766 299.136 474.006C221.103 460.247 153.398 431.15 107.014 395.236C60.6254 359.317 35.5898 316.604 42.8185 275.608C50.0471 234.613 88.1816 203.038 144.058 185.151C199.928 167.267 273.501 163.081 351.534 176.841Z" stroke="#3F83F8" stroke-width="0.25"/>
<path d="M473.707 351.202C459.948 429.235 430.851 496.94 394.937 543.324C359.018 589.712 316.305 614.748 275.309 607.519C234.314 600.291 202.739 562.156 184.853 506.28C166.968 450.41 162.782 376.836 176.542 298.803C190.301 220.77 219.398 153.065 255.312 106.682C291.231 60.2928 333.944 35.2573 374.94 42.4859C415.935 49.7145 447.51 87.8491 465.397 143.725C483.281 199.595 487.467 273.169 473.707 351.202Z" stroke="#3F83F8" stroke-width="0.25"/>
<path d="M238.914 201.698C303.821 156.25 372.27 128.949 430.464 121.547C488.664 114.143 536.569 126.643 560.446 160.743C584.323 194.842 579.685 244.134 552.822 296.292C525.962 348.444 476.897 403.429 411.99 448.877C347.083 494.325 278.634 521.625 220.44 529.028C162.24 536.432 114.335 523.932 90.4577 489.832C66.5809 455.733 71.2193 406.441 98.0821 354.283C124.942 302.131 174.007 247.146 238.914 201.698Z" stroke="#3F83F8" stroke-width="0.25"/>
<path d="M448.595 238.601C494.044 303.507 521.344 371.957 528.747 430.151C536.15 488.351 523.65 536.256 489.551 560.133C455.451 584.01 406.159 579.371 354.001 552.509C301.849 525.649 246.865 476.584 201.416 411.677C155.968 346.77 128.668 278.321 121.265 220.127C113.861 161.927 126.362 114.021 160.461 90.1446C194.561 66.2678 243.853 70.9063 296.011 97.769C348.163 124.629 403.147 173.694 448.595 238.601Z" stroke="#3F83F8" stroke-width="0.25"/>
<path d="M470.741 286.034C491.249 362.571 493.492 436.229 480.545 493.445C467.596 550.668 439.465 591.409 399.256 602.183C359.046 612.957 314.313 591.74 274.488 548.658C234.668 505.581 199.781 440.669 179.273 364.133C158.765 287.596 156.522 213.937 169.469 156.721C182.418 99.4987 210.549 58.7573 250.758 47.9832C290.968 37.2091 335.7 58.4267 375.525 101.508C415.346 144.585 450.233 209.497 470.741 286.034Z" stroke="#3F83F8" stroke-width="0.25"/>
<path d="M364.349 470.449C287.812 490.957 214.153 493.199 156.937 480.252C99.7149 467.304 58.9736 439.173 48.1995 398.963C37.4254 358.754 58.6429 314.021 101.725 274.196C144.802 234.376 209.713 199.489 286.25 178.981C362.787 158.473 436.446 156.23 493.662 169.177C550.884 182.125 591.625 210.256 602.399 250.466C613.174 290.675 591.956 335.408 548.874 375.233C505.797 415.054 440.886 449.941 364.349 470.449Z" stroke="#3F83F8" stroke-width="0.25"/>
<path d="M400.62 194.651C469.241 234.269 522.911 284.768 554.214 334.381C585.521 383.999 594.438 432.699 573.624 468.75C552.81 504.801 506.176 521.429 447.552 519.126C388.934 516.823 318.366 495.593 249.745 455.974C181.124 416.356 127.454 365.857 96.1507 316.244C64.8443 266.626 55.9274 217.926 76.7414 181.875C97.5554 145.824 144.189 129.196 202.813 131.5C261.431 133.802 331.999 155.033 400.62 194.651Z" stroke="#3F83F8" stroke-width="0.25"/>
<path d="M455.79 400.283C416.172 468.904 365.673 522.574 316.06 553.877C266.442 585.183 217.742 594.1 181.691 573.286C145.64 552.472 129.012 505.838 131.315 447.214C133.618 388.597 154.849 318.029 194.467 249.408C234.085 180.787 284.584 127.116 334.197 95.8134C383.815 64.5071 432.515 55.5902 468.566 76.4041C504.617 97.2181 521.245 143.852 518.942 202.476C516.639 261.093 495.409 331.662 455.79 400.283Z" stroke="#3F83F8" stroke-width="0.25"/>
<path d="M345.046 175.838C423.605 186.181 492.515 212.297 540.421 246.154C588.332 280.015 615.207 321.595 609.774 362.867C604.34 404.139 567.619 437.347 512.576 457.654C457.54 477.958 384.219 485.349 305.66 475.007C227.101 464.664 158.191 438.548 110.285 404.691C62.3733 370.83 35.4985 329.249 40.932 287.978C46.3656 246.706 83.0865 213.498 138.129 193.191C193.166 172.887 266.487 165.496 345.046 175.838Z" stroke="#3F83F8" stroke-width="0.25"/>
<path d="M474.708 344.704C464.366 423.263 438.25 492.173 404.393 540.079C370.532 587.99 328.951 614.865 287.679 609.432C246.407 603.998 213.199 567.277 192.893 512.234C172.588 457.198 165.197 383.877 175.54 305.318C185.882 226.759 211.998 157.849 245.855 109.943C279.716 62.0316 321.297 35.1567 362.569 40.5903C403.84 46.0238 437.049 82.7448 457.355 137.787C477.66 192.824 485.051 266.145 474.708 344.704Z" stroke="#3F83F8" stroke-width="0.25"/>
<path d="M233.617 205.584C296.479 157.348 363.673 127.088 421.488 117.154C479.31 107.219 527.715 117.617 553.057 150.643C578.398 183.669 575.914 233.116 551.352 286.396C526.793 339.67 480.173 396.742 417.31 444.979C354.448 493.215 287.254 523.475 229.439 533.409C171.617 543.344 123.212 532.945 97.8703 499.92C72.5288 466.894 75.0127 417.447 99.5748 364.167C124.134 310.893 170.754 253.82 233.617 205.584Z" stroke="#3F83F8" stroke-width="0.25"/>
<path d="M444.708 233.305C492.945 296.168 523.205 363.362 533.139 421.177C543.074 478.999 532.675 527.404 499.65 552.746C466.624 578.087 417.177 575.603 363.897 551.041C310.622 526.482 253.55 479.862 205.314 416.999C157.078 354.136 126.818 286.943 116.884 229.128C106.949 171.306 117.347 122.901 150.373 97.5591C183.398 72.2176 232.846 74.7016 286.126 99.2637C339.4 123.823 396.472 170.443 444.708 233.305Z" stroke="#3F83F8" stroke-width="0.25"/>
<path d="M468.902 279.728C492.729 355.297 498.182 428.788 487.743 486.514C477.303 544.247 450.976 586.177 411.275 598.694C371.574 611.212 325.958 591.966 284.292 550.662C242.63 509.363 204.945 446.035 181.118 370.466C157.291 294.896 151.837 221.406 162.276 163.679C172.717 105.947 199.044 64.017 238.745 51.4992C278.446 38.9815 324.062 58.2276 365.728 99.5313C407.39 140.83 445.075 204.158 468.902 279.728Z" stroke="#3F83F8" stroke-width="0.25"/>
<path d="M370.655 468.608C295.086 492.435 221.595 497.888 163.869 487.449C106.136 477.009 64.2062 450.682 51.6885 410.981C39.1707 371.279 58.4168 325.664 99.7205 283.998C141.02 242.336 204.348 204.651 279.917 180.824C355.486 156.997 428.977 151.543 486.703 161.982C544.436 172.422 586.366 198.75 598.884 238.451C611.401 278.152 592.155 323.768 550.852 365.434C509.552 407.096 446.224 444.781 370.655 468.608Z" stroke="#3F83F8" stroke-width="0.25"/>
<path d="M394.862 191.491C465.146 228.078 520.967 276.188 554.405 324.388C587.846 372.593 598.878 420.858 579.657 457.783C560.435 494.707 514.571 513.353 455.902 513.609C397.24 513.866 325.813 495.734 255.529 459.146C185.245 422.559 129.423 374.449 95.986 326.249C62.5451 278.043 51.5124 229.779 70.7341 192.854C89.9558 155.93 135.82 137.284 194.489 137.027C253.151 136.771 324.578 154.903 394.862 191.491Z" stroke="#3F83F8" stroke-width="0.25"/>
<path d="M458.949 394.52C422.361 464.804 374.252 520.626 326.052 554.063C277.846 587.504 229.581 598.537 192.657 579.315C155.733 560.093 137.086 514.229 136.83 455.56C136.574 396.898 154.706 325.471 191.293 255.187C227.881 184.904 275.99 129.082 324.191 95.6444C372.396 62.2035 420.661 51.1708 457.585 70.3925C494.51 89.6141 513.156 135.478 513.412 194.147C513.668 252.809 495.536 324.236 458.949 394.52Z" stroke="#3F83F8" stroke-width="0.25"/>
<path d="M338.52 175.12C417.455 182.026 487.439 205.111 536.776 236.846C586.119 268.585 614.782 308.954 611.154 350.423C607.525 391.893 572.288 426.671 518.183 449.359C464.085 472.045 391.156 482.627 312.221 475.721C233.285 468.816 163.302 445.73 113.964 413.995C64.6217 382.256 35.9587 341.887 39.5868 300.418C43.2149 258.948 78.4524 224.17 132.557 201.482C186.656 178.796 259.585 168.214 338.52 175.12Z" stroke="#3F83F8" stroke-width="0.25"/>
<path d="M475.424 338.169C468.519 417.104 445.433 487.088 413.698 536.425C381.959 585.768 341.59 614.431 300.121 610.803C258.651 607.175 223.873 571.937 201.185 517.833C178.499 463.734 167.917 390.805 174.823 311.87C181.729 232.935 204.814 162.951 236.549 113.614C268.288 64.2711 308.657 35.6081 350.126 39.2362C391.596 42.8643 426.374 78.1018 449.062 132.206C471.748 186.305 482.33 259.234 475.424 338.169Z" stroke="#3F83F8" stroke-width="0.25"/>
<path d="M228.494 209.698C289.193 158.766 355.003 125.604 412.329 113.157C469.663 100.709 518.476 108.986 545.234 140.875C571.992 172.764 571.667 222.273 549.452 276.573C527.24 330.868 483.154 389.919 422.455 440.852C361.756 491.784 295.947 524.946 238.62 537.393C181.286 549.841 132.474 541.563 105.716 509.675C78.9577 477.786 79.2824 428.277 101.497 373.976C123.709 319.682 167.795 260.63 228.494 209.698Z" stroke="#3F83F8" stroke-width="0.25"/>
<path d="M440.594 228.185C491.527 288.884 524.689 354.694 537.135 412.021C549.583 469.354 541.306 518.167 509.417 544.925C477.528 571.683 428.019 571.358 373.719 549.143C319.424 526.931 260.373 482.845 209.44 422.146C158.508 361.447 125.346 295.638 112.899 238.311C100.451 180.978 108.729 132.165 140.618 105.407C172.506 78.6488 222.015 78.9735 276.316 101.188C330.61 123.4 389.662 167.486 440.594 228.185Z" stroke="#3F83F8" stroke-width="0.25"/>
<path d="M466.789 273.508C493.89 347.966 502.544 421.149 494.633 479.275C486.721 537.409 462.248 580.447 423.13 594.684C384.013 608.922 337.601 591.684 294.173 552.237C250.75 512.794 210.338 451.171 183.237 376.712C156.137 302.254 147.483 229.071 155.394 170.945C163.306 112.811 187.779 69.7733 226.896 55.5357C266.014 41.2981 312.426 58.5362 355.854 97.9831C399.277 137.426 439.689 199.05 466.789 273.508Z" stroke="#3F83F8" stroke-width="0.25"/>
<path d="M376.875 466.493C302.417 493.594 229.234 502.248 171.107 494.337C112.974 486.425 69.9359 461.952 55.6983 422.834C41.4607 383.717 58.6987 337.305 98.1457 293.877C137.588 250.454 199.212 210.042 273.67 182.941C348.129 155.841 421.311 147.187 479.438 155.098C537.571 163.01 580.609 187.483 594.847 226.6C609.085 265.718 591.846 312.13 552.4 355.558C512.957 398.981 451.333 439.393 376.875 466.493Z" stroke="#3F83F8" stroke-width="0.25"/>
<path d="M388.971 188.584C460.784 222.071 518.651 267.7 554.159 314.396C589.671 361.097 602.798 408.834 585.205 446.562C567.612 484.29 522.605 504.919 464.004 507.734C405.409 510.549 333.259 495.549 261.446 462.063C189.633 428.576 131.765 382.947 96.2576 336.251C60.7458 289.55 47.6184 241.812 65.2111 204.085C82.8039 166.357 127.811 145.728 186.413 142.913C245.008 140.098 317.158 155.097 388.971 188.584Z" stroke="#3F83F8" stroke-width="0.25"/>
<path d="M461.853 388.625C428.366 460.438 382.737 518.305 336.041 553.813C289.341 589.325 241.603 602.452 203.875 584.859C166.147 567.267 145.518 522.259 142.703 463.658C139.888 405.063 154.888 332.913 188.375 261.1C221.861 189.287 267.49 131.42 314.186 95.9118C360.887 60.4 408.625 47.2725 446.352 64.8653C484.08 82.458 504.709 127.465 507.524 186.067C510.339 244.662 495.34 316.812 461.853 388.625Z" stroke="#3F83F8" stroke-width="0.25"/>
<path d="M331.968 174.686C411.13 178.143 482.054 198.153 532.728 227.706C583.409 257.263 613.805 296.343 611.989 337.931C610.174 379.519 576.487 415.802 523.423 440.828C470.366 465.852 397.968 479.605 318.806 476.149C239.645 472.693 168.721 452.682 118.046 423.129C67.3662 393.573 36.9696 354.493 38.7854 312.904C40.6012 271.316 74.2881 235.034 127.352 210.007C180.409 184.983 252.807 171.23 331.968 174.686Z" stroke="#3F83F8" stroke-width="0.25"/>
<path d="M475.855 331.609C472.399 410.77 452.388 481.694 422.835 532.369C393.279 583.049 354.199 613.446 312.61 611.63C271.022 609.814 234.74 576.127 209.713 523.064C184.689 470.006 170.936 397.608 174.392 318.447C177.849 239.285 197.859 168.362 227.412 117.687C256.968 67.0067 296.049 36.6102 337.637 38.426C379.225 40.2417 415.507 73.9287 440.534 126.992C465.558 180.05 479.311 252.448 475.855 331.609Z" stroke="#3F83F8" stroke-width="0.25"/>
<path d="M223.556 214.031C281.975 160.499 346.276 124.498 403.005 109.563C459.741 94.6261 508.868 100.766 536.992 131.458C565.115 162.149 566.95 211.625 547.125 266.843C527.303 322.055 485.835 382.973 427.415 436.504C368.996 490.036 304.695 526.037 247.966 540.972C191.23 555.909 142.102 549.769 113.979 519.078C85.8555 488.386 84.0204 438.911 103.845 383.692C123.668 328.481 165.136 267.562 223.556 214.031Z" stroke="#3F83F8" stroke-width="0.25"/>
<path d="M436.26 223.249C489.792 281.668 525.793 345.969 540.728 402.698C555.665 459.434 549.525 508.561 518.834 536.685C488.142 564.808 438.667 566.644 383.448 546.819C328.237 526.996 267.319 485.528 213.787 427.108C160.255 368.689 124.254 304.388 109.319 247.659C94.3822 190.923 100.522 141.796 131.214 113.672C161.905 85.5487 211.381 83.7136 266.599 103.539C321.811 123.361 382.729 164.829 436.26 223.249Z" stroke="#3F83F8" stroke-width="0.25"/>
</svg>