<?xml version="1.0" encoding="utf-8"?>
<svg xmlns="http://www.w3.org/2000/svg" fill="none" height="796" viewBox="0 0 919 796" width="919">
<path d="M449.229 399.478L458.541 391.763L467.853 383.781L469.981 395.754L472.11 407.726L460.67 403.735L449.229 399.478Z" stroke="url(#paint0_linear_3_413)" stroke-miterlimit="10" stroke-width="2"/>
<path d="M448.432 399.212L458.808 391.231L468.917 383.249L470.78 396.02L472.642 409.056L460.404 404.267L448.432 399.212Z" stroke="url(#paint1_linear_3_413)" stroke-miterlimit="10" stroke-width="2"/>
<path d="M447.367 398.946L458.807 390.699L470.247 382.451L471.578 396.286L473.174 410.386L460.404 404.799L447.367 398.946Z" stroke="url(#paint2_linear_3_413)" stroke-miterlimit="10" stroke-width="2"/>
<path d="M446.569 398.68L459.074 390.167L471.578 381.653L472.642 396.818L473.706 411.717L460.138 405.331L446.569 398.68Z" stroke="url(#paint3_linear_3_413)" stroke-miterlimit="10" stroke-width="2"/>
<path d="M445.505 398.148L459.339 389.634L473.174 380.855L473.706 397.084L474.238 413.313L459.872 405.864L445.505 398.148Z" stroke="url(#paint4_linear_3_413)" stroke-miterlimit="10" stroke-width="2"/>
<path d="M444.441 397.616L459.606 388.836L474.771 380.323V397.616V415.175L459.606 406.396L444.441 397.616Z" stroke="url(#paint5_linear_3_413)" stroke-miterlimit="10" stroke-width="2"/>
<path d="M443.377 397.084L459.872 388.304L476.633 379.525L475.835 398.148L475.303 417.038L459.34 407.194L443.377 397.084Z" stroke="url(#paint6_linear_3_413)" stroke-miterlimit="10" stroke-width="2"/>
<path d="M442.046 396.552L460.403 387.506L478.495 378.726L477.164 398.946L475.568 419.166L458.807 407.726L442.046 396.552Z" stroke="url(#paint7_linear_3_413)" stroke-miterlimit="10" stroke-width="2"/>
<path d="M440.982 395.754L460.67 386.974L480.624 377.928L478.229 399.744L476.101 421.294L458.542 408.524L440.982 395.754Z" stroke="url(#paint8_linear_3_413)" stroke-miterlimit="10" stroke-width="2"/>
<path d="M439.652 394.955L461.202 386.176L483.018 377.396L479.56 400.542L476.367 423.689L458.01 409.322L439.652 394.955Z" stroke="url(#paint9_linear_3_413)" stroke-miterlimit="10" stroke-width="2"/>
<path d="M438.321 393.891L461.734 385.378L485.412 376.864L481.155 401.341L476.632 426.083L457.477 410.12L438.321 393.891Z" stroke="url(#paint10_linear_3_413)" stroke-miterlimit="10" stroke-width="2"/>
<path d="M436.725 392.827L462.531 384.58L488.072 376.066L482.485 402.671L476.898 429.01L456.678 410.918L436.725 392.827Z" stroke="url(#paint11_linear_3_413)" stroke-miterlimit="10" stroke-width="2"/>
<path d="M435.129 391.497L463.064 383.515L490.999 375.534L484.082 403.735L476.899 431.936L456.147 411.717L435.129 391.497Z" stroke="url(#paint12_linear_3_413)" stroke-miterlimit="10" stroke-width="2"/>
<path d="M433.533 390.167L463.863 382.717L494.193 375.268L485.679 405.065L476.899 435.129L455.349 412.781L433.533 390.167Z" stroke="url(#paint13_linear_3_413)" stroke-miterlimit="10" stroke-width="2"/>
<path d="M431.937 388.836L464.927 381.653L497.651 374.736L487.275 406.662L476.899 438.588L454.551 413.579L431.937 388.836Z" stroke="url(#paint14_linear_3_413)" stroke-miterlimit="10" stroke-width="2"/>
<path d="M430.34 386.974L465.724 380.855L501.375 374.47L488.871 408.524L476.633 442.312L453.486 414.643L430.34 386.974Z" stroke="url(#paint15_linear_3_413)" stroke-miterlimit="10" stroke-width="2"/>
<path d="M428.478 385.112L466.789 379.791L505.366 374.204L490.733 410.386L476.367 446.303L452.422 415.707L428.478 385.112Z" stroke="url(#paint16_linear_3_413)" stroke-miterlimit="10" stroke-width="2"/>
<path d="M426.615 382.983L468.119 378.726L509.623 374.204L492.596 412.515L475.568 450.56L451.092 416.772L426.615 382.983Z" stroke="url(#paint17_linear_3_413)" stroke-miterlimit="10" stroke-width="2"/>
<path d="M424.753 380.589L469.449 377.662L514.146 374.47L494.458 414.643L474.77 455.083L449.762 417.836L424.753 380.589Z" stroke="url(#paint18_linear_3_413)" stroke-miterlimit="10" stroke-width="2"/>
<path d="M422.625 378.194L471.046 376.332L519.201 374.736L496.587 417.304L473.973 459.872L448.432 418.9L422.625 378.194Z" stroke="url(#paint19_linear_3_413)" stroke-miterlimit="10" stroke-width="2"/>
<path d="M420.762 375.268H472.641H524.521L498.448 420.23L472.641 465.193L446.569 420.23L420.762 375.268Z" stroke="url(#paint20_linear_3_413)" stroke-miterlimit="10" stroke-width="2"/>
<path d="M418.634 372.075L474.504 374.204L530.109 376.066L500.577 423.423L471.046 470.514L444.973 421.294L418.634 372.075Z" stroke="url(#paint21_linear_3_413)" stroke-miterlimit="10" stroke-width="2"/>
<path d="M416.506 368.617L476.367 372.873L536.228 377.13L502.706 426.881L469.184 476.633L442.845 422.625L416.506 368.617Z" stroke="url(#paint22_linear_3_413)" stroke-miterlimit="10" stroke-width="2"/>
<path d="M414.377 364.892L478.495 371.543L542.879 378.461L504.834 430.606L467.055 482.752L440.716 423.955L414.377 364.892Z" stroke="url(#paint23_linear_3_413)" stroke-miterlimit="10" stroke-width="2"/>
<path d="M412.248 360.635L480.889 370.479L549.796 380.057L506.962 434.597L464.394 489.403L438.321 425.019L412.248 360.635Z" stroke="url(#paint24_linear_3_413)" stroke-miterlimit="10" stroke-width="2"/>
<path d="M410.12 356.112L483.55 369.149L556.98 382.185L509.091 439.386L461.202 496.32L435.661 426.349L410.12 356.112Z" stroke="url(#paint25_linear_3_413)" stroke-miterlimit="10" stroke-width="2"/>
<path d="M407.992 351.323L486.477 368.084L564.962 384.579L511.219 444.175L457.743 503.77L432.735 427.68L407.992 351.323Z" stroke="url(#paint26_linear_3_413)" stroke-miterlimit="10" stroke-width="2"/>
<path d="M405.863 346.002L489.669 366.754L573.209 387.506L513.347 449.762L453.486 511.751L429.808 428.744L405.863 346.002Z" stroke="url(#paint27_linear_3_413)" stroke-miterlimit="10" stroke-width="2"/>
<path d="M404.001 340.149L493.128 365.69L582.254 391.231L515.476 455.615L448.697 519.999L426.349 430.074L404.001 340.149Z" stroke="url(#paint28_linear_3_413)" stroke-miterlimit="10" stroke-width="2"/>
<path d="M401.873 333.498L496.587 364.36L591.567 395.221L517.339 462L443.377 528.778L422.625 431.138L401.873 333.498Z" stroke="url(#paint29_linear_3_413)" stroke-miterlimit="10" stroke-width="2"/>
<path d="M400.011 326.581L500.844 363.296L601.41 400.01L519.467 468.917L437.258 537.824L418.634 432.202L400.011 326.581Z" stroke="url(#paint30_linear_3_413)" stroke-miterlimit="10" stroke-width="2"/>
<path d="M398.148 319.131L505.1 362.231L612.052 405.598L521.063 476.367L430.34 547.402L414.377 433.267L398.148 319.131Z" stroke="url(#paint31_linear_3_413)" stroke-miterlimit="10" stroke-width="2"/>
<path d="M396.552 310.884L509.889 361.433L622.96 411.717L522.659 484.614L422.625 557.512L409.588 434.331L396.552 310.884Z" stroke="url(#paint32_linear_3_413)" stroke-miterlimit="10" stroke-width="2"/>
<path d="M395.222 302.104L514.944 360.635L634.666 418.9L524.256 493.66L413.845 568.154L404.533 435.129L395.222 302.104Z" stroke="url(#paint33_linear_3_413)" stroke-miterlimit="10" stroke-width="2"/>
<path d="M393.892 292.526L520.531 359.837L646.905 427.148L525.32 503.238L404.002 579.062L398.947 435.927L393.892 292.526Z" stroke="url(#paint34_linear_3_413)" stroke-miterlimit="10" stroke-width="2"/>
<path d="M393.093 282.417L526.384 359.305L659.941 436.459L526.384 513.348L393.093 590.502V436.459V282.417Z" stroke="url(#paint35_linear_3_413)" stroke-miterlimit="10" stroke-width="2"/>
<path d="M392.295 271.242L532.769 359.039L673.243 446.835L527.182 524.522L380.854 602.474L386.442 436.725L392.295 271.242Z" stroke="url(#paint36_linear_3_413)" stroke-miterlimit="10" stroke-width="2"/>
<path d="M392.029 259.27L539.686 358.773L687.344 458.541L527.448 536.494L367.286 614.713L379.524 436.991L392.029 259.27Z" stroke="url(#paint37_linear_3_413)" stroke-miterlimit="10" stroke-width="2"/>
<path d="M392.295 246.5L547.136 359.039L702.243 471.578L527.182 549.53L352.121 627.483L372.075 436.991L392.295 246.5Z" stroke="url(#paint38_linear_3_413)" stroke-miterlimit="10" stroke-width="2"/>
<path d="M392.827 232.665L555.117 359.305L717.407 486.211L526.384 563.365L335.626 640.519L364.093 436.459L392.827 232.665Z" stroke="url(#paint39_linear_3_413)" stroke-miterlimit="10" stroke-width="2"/>
<path d="M394.157 217.766L563.631 360.103L733.37 502.439L525.32 578.264L317.269 654.088L355.58 435.927L394.157 217.766Z" stroke="url(#paint40_linear_3_413)" stroke-miterlimit="10" stroke-width="2"/>
<path d="M396.02 201.803L572.943 361.167L749.866 520.531L523.458 594.227L296.783 667.656L346.534 434.863L396.02 201.803Z" stroke="url(#paint41_linear_3_413)" stroke-miterlimit="10" stroke-width="2"/>
<path d="M398.414 184.776L582.787 362.764L766.893 540.751L520.797 611.254L274.701 681.757L336.691 433.267L398.414 184.776Z" stroke="url(#paint42_linear_3_413)" stroke-miterlimit="10" stroke-width="2"/>
<path d="M401.873 166.685L593.163 364.892L784.453 562.833L517.339 629.345L250.225 696.124L326.049 431.404L401.873 166.685Z" stroke="url(#paint43_linear_3_413)" stroke-miterlimit="10" stroke-width="2"/>
<path d="M406.396 147.263L604.603 367.286L802.544 587.309L513.082 649.033L223.354 710.49L314.875 429.01L406.396 147.263Z" stroke="url(#paint44_linear_3_413)" stroke-miterlimit="10" stroke-width="2"/>
<path d="M411.717 126.511L616.309 370.479L821.167 614.446L507.495 669.785L194.088 724.857L302.902 425.817L411.717 126.511Z" stroke="url(#paint45_linear_3_413)" stroke-miterlimit="10" stroke-width="2"/>
<path d="M418.368 104.695L629.08 374.47L840.057 644.244L500.844 691.867L161.896 739.49L290.132 422.093L418.368 104.695Z" stroke="url(#paint46_linear_3_413)" stroke-miterlimit="10" stroke-width="2"/>
<path d="M426.349 81.2828L642.648 378.992L858.946 676.702L492.862 715.279L126.777 753.857L276.563 417.57L426.349 81.2828Z" stroke="url(#paint47_linear_3_413)" stroke-miterlimit="10" stroke-width="2"/>
<path d="M435.661 56.2742L657.015 384.58L878.368 712.619L483.55 740.288L88.7324 767.957L262.197 411.983L435.661 56.2742Z" stroke="url(#paint48_linear_3_413)" stroke-miterlimit="10" stroke-width="2"/>
<path d="M446.835 29.9352L672.179 390.965L897.789 751.728L472.375 766.627L46.9619 781.526L247.031 405.597L446.835 29.9352Z" stroke="url(#paint49_linear_3_413)" stroke-miterlimit="10" stroke-width="2"/>
<path d="M459.606 2L688.408 398.414L917.211 794.828H459.606H2L230.803 398.414L459.606 2Z" stroke="url(#paint50_linear_3_413)" stroke-miterlimit="10" stroke-width="2"/>
<defs>
<linearGradient gradientUnits="userSpaceOnUse" id="paint0_linear_3_413" x1="460.67" x2="460.67" y1="383.781" y2="407.726">
<stop stop-color="#EFF6FF"/>
<stop offset="1" stop-color="#2B7FFF"/>
</linearGradient>
<linearGradient gradientUnits="userSpaceOnUse" id="paint1_linear_3_413" x1="460.537" x2="460.537" y1="383.249" y2="409.056">
<stop stop-color="#EFF6FF"/>
<stop offset="1" stop-color="#2B7FFF"/>
</linearGradient>
<linearGradient gradientUnits="userSpaceOnUse" id="paint2_linear_3_413" x1="460.271" x2="460.271" y1="382.451" y2="410.386">
<stop stop-color="#EFF6FF"/>
<stop offset="1" stop-color="#2B7FFF"/>
</linearGradient>
<linearGradient gradientUnits="userSpaceOnUse" id="paint3_linear_3_413" x1="460.138" x2="460.138" y1="381.653" y2="411.717">
<stop stop-color="#EFF6FF"/>
<stop offset="1" stop-color="#2B7FFF"/>
</linearGradient>
<linearGradient gradientUnits="userSpaceOnUse" id="paint4_linear_3_413" x1="459.872" x2="459.872" y1="380.855" y2="413.313">
<stop stop-color="#EFF6FF"/>
<stop offset="1" stop-color="#2B7FFF"/>
</linearGradient>
<linearGradient gradientUnits="userSpaceOnUse" id="paint5_linear_3_413" x1="459.606" x2="459.606" y1="380.323" y2="415.175">
<stop stop-color="#EFF6FF"/>
<stop offset="1" stop-color="#2B7FFF"/>
</linearGradient>
<linearGradient gradientUnits="userSpaceOnUse" id="paint6_linear_3_413" x1="460.005" x2="460.005" y1="379.525" y2="417.038">
<stop stop-color="#EFF6FF"/>
<stop offset="1" stop-color="#2B7FFF"/>
</linearGradient>
<linearGradient gradientUnits="userSpaceOnUse" id="paint7_linear_3_413" x1="460.27" x2="460.27" y1="378.726" y2="419.166">
<stop stop-color="#EFF6FF"/>
<stop offset="1" stop-color="#2B7FFF"/>
</linearGradient>
<linearGradient gradientUnits="userSpaceOnUse" id="paint8_linear_3_413" x1="460.803" x2="460.803" y1="377.928" y2="421.294">
<stop stop-color="#EFF6FF"/>
<stop offset="1" stop-color="#2B7FFF"/>
</linearGradient>
<linearGradient gradientUnits="userSpaceOnUse" id="paint9_linear_3_413" x1="461.335" x2="461.335" y1="377.396" y2="423.689">
<stop stop-color="#EFF6FF"/>
<stop offset="1" stop-color="#2B7FFF"/>
</linearGradient>
<linearGradient gradientUnits="userSpaceOnUse" id="paint10_linear_3_413" x1="461.867" x2="461.867" y1="376.864" y2="426.083">
<stop stop-color="#EFF6FF"/>
<stop offset="1" stop-color="#2B7FFF"/>
</linearGradient>
<linearGradient gradientUnits="userSpaceOnUse" id="paint11_linear_3_413" x1="462.398" x2="462.398" y1="376.066" y2="429.01">
<stop stop-color="#EFF6FF"/>
<stop offset="1" stop-color="#2B7FFF"/>
</linearGradient>
<linearGradient gradientUnits="userSpaceOnUse" id="paint12_linear_3_413" x1="463.064" x2="463.064" y1="375.534" y2="431.936">
<stop stop-color="#EFF6FF"/>
<stop offset="1" stop-color="#2B7FFF"/>
</linearGradient>
<linearGradient gradientUnits="userSpaceOnUse" id="paint13_linear_3_413" x1="463.863" x2="463.863" y1="375.268" y2="435.129">
<stop stop-color="#EFF6FF"/>
<stop offset="1" stop-color="#2B7FFF"/>
</linearGradient>
<linearGradient gradientUnits="userSpaceOnUse" id="paint14_linear_3_413" x1="464.794" x2="464.794" y1="374.736" y2="438.588">
<stop stop-color="#EFF6FF"/>
<stop offset="1" stop-color="#2B7FFF"/>
</linearGradient>
<linearGradient gradientUnits="userSpaceOnUse" id="paint15_linear_3_413" x1="465.858" x2="465.858" y1="374.47" y2="442.312">
<stop stop-color="#EFF6FF"/>
<stop offset="1" stop-color="#2B7FFF"/>
</linearGradient>
<linearGradient gradientUnits="userSpaceOnUse" id="paint16_linear_3_413" x1="466.922" x2="466.922" y1="374.204" y2="446.303">
<stop stop-color="#EFF6FF"/>
<stop offset="1" stop-color="#2B7FFF"/>
</linearGradient>
<linearGradient gradientUnits="userSpaceOnUse" id="paint17_linear_3_413" x1="468.119" x2="468.119" y1="374.204" y2="450.56">
<stop stop-color="#EFF6FF"/>
<stop offset="1" stop-color="#2B7FFF"/>
</linearGradient>
<linearGradient gradientUnits="userSpaceOnUse" id="paint18_linear_3_413" x1="469.449" x2="469.449" y1="374.47" y2="455.083">
<stop stop-color="#EFF6FF"/>
<stop offset="1" stop-color="#2B7FFF"/>
</linearGradient>
<linearGradient gradientUnits="userSpaceOnUse" id="paint19_linear_3_413" x1="470.913" x2="470.913" y1="374.736" y2="459.872">
<stop stop-color="#EFF6FF"/>
<stop offset="1" stop-color="#2B7FFF"/>
</linearGradient>
<linearGradient gradientUnits="userSpaceOnUse" id="paint20_linear_3_413" x1="472.641" x2="472.641" y1="375.268" y2="465.193">
<stop stop-color="#EFF6FF"/>
<stop offset="1" stop-color="#2B7FFF"/>
</linearGradient>
<linearGradient gradientUnits="userSpaceOnUse" id="paint21_linear_3_413" x1="474.371" x2="474.371" y1="372.075" y2="470.514">
<stop stop-color="#EFF6FF"/>
<stop offset="1" stop-color="#2B7FFF"/>
</linearGradient>
<linearGradient gradientUnits="userSpaceOnUse" id="paint22_linear_3_413" x1="476.367" x2="476.367" y1="368.617" y2="476.633">
<stop stop-color="#EFF6FF"/>
<stop offset="1" stop-color="#2B7FFF"/>
</linearGradient>
<linearGradient gradientUnits="userSpaceOnUse" id="paint23_linear_3_413" x1="478.628" x2="478.628" y1="364.892" y2="482.752">
<stop stop-color="#EFF6FF"/>
<stop offset="1" stop-color="#2B7FFF"/>
</linearGradient>
<linearGradient gradientUnits="userSpaceOnUse" id="paint24_linear_3_413" x1="481.022" x2="481.022" y1="360.635" y2="489.403">
<stop stop-color="#EFF6FF"/>
<stop offset="1" stop-color="#2B7FFF"/>
</linearGradient>
<linearGradient gradientUnits="userSpaceOnUse" id="paint25_linear_3_413" x1="483.55" x2="483.55" y1="356.112" y2="496.32">
<stop stop-color="#EFF6FF"/>
<stop offset="1" stop-color="#2B7FFF"/>
</linearGradient>
<linearGradient gradientUnits="userSpaceOnUse" id="paint26_linear_3_413" x1="486.477" x2="486.477" y1="351.323" y2="503.77">
<stop stop-color="#EFF6FF"/>
<stop offset="1" stop-color="#2B7FFF"/>
</linearGradient>
<linearGradient gradientUnits="userSpaceOnUse" id="paint27_linear_3_413" x1="489.536" x2="489.536" y1="346.002" y2="511.751">
<stop stop-color="#EFF6FF"/>
<stop offset="1" stop-color="#2B7FFF"/>
</linearGradient>
<linearGradient gradientUnits="userSpaceOnUse" id="paint28_linear_3_413" x1="493.128" x2="493.128" y1="340.149" y2="519.999">
<stop stop-color="#EFF6FF"/>
<stop offset="1" stop-color="#2B7FFF"/>
</linearGradient>
<linearGradient gradientUnits="userSpaceOnUse" id="paint29_linear_3_413" x1="496.72" x2="496.72" y1="333.498" y2="528.778">
<stop stop-color="#EFF6FF"/>
<stop offset="1" stop-color="#2B7FFF"/>
</linearGradient>
<linearGradient gradientUnits="userSpaceOnUse" id="paint30_linear_3_413" x1="500.711" x2="500.711" y1="326.581" y2="537.824">
<stop stop-color="#EFF6FF"/>
<stop offset="1" stop-color="#2B7FFF"/>
</linearGradient>
<linearGradient gradientUnits="userSpaceOnUse" id="paint31_linear_3_413" x1="505.1" x2="505.1" y1="319.131" y2="547.402">
<stop stop-color="#EFF6FF"/>
<stop offset="1" stop-color="#2B7FFF"/>
</linearGradient>
<linearGradient gradientUnits="userSpaceOnUse" id="paint32_linear_3_413" x1="509.756" x2="509.756" y1="310.884" y2="557.512">
<stop stop-color="#EFF6FF"/>
<stop offset="1" stop-color="#2B7FFF"/>
</linearGradient>
<linearGradient gradientUnits="userSpaceOnUse" id="paint33_linear_3_413" x1="514.944" x2="514.944" y1="302.104" y2="568.154">
<stop stop-color="#EFF6FF"/>
<stop offset="1" stop-color="#2B7FFF"/>
</linearGradient>
<linearGradient gradientUnits="userSpaceOnUse" id="paint34_linear_3_413" x1="520.398" x2="520.398" y1="292.526" y2="579.062">
<stop stop-color="#EFF6FF"/>
<stop offset="1" stop-color="#2B7FFF"/>
</linearGradient>
<linearGradient gradientUnits="userSpaceOnUse" id="paint35_linear_3_413" x1="526.517" x2="526.517" y1="282.417" y2="590.502">
<stop stop-color="#EFF6FF"/>
<stop offset="1" stop-color="#2B7FFF"/>
</linearGradient>
<linearGradient gradientUnits="userSpaceOnUse" id="paint36_linear_3_413" x1="527.049" x2="527.049" y1="271.242" y2="602.474">
<stop stop-color="#EFF6FF"/>
<stop offset="1" stop-color="#2B7FFF"/>
</linearGradient>
<linearGradient gradientUnits="userSpaceOnUse" id="paint37_linear_3_413" x1="527.315" x2="527.315" y1="259.27" y2="614.713">
<stop stop-color="#EFF6FF"/>
<stop offset="1" stop-color="#2B7FFF"/>
</linearGradient>
<linearGradient gradientUnits="userSpaceOnUse" id="paint38_linear_3_413" x1="527.182" x2="527.182" y1="246.5" y2="627.483">
<stop stop-color="#EFF6FF"/>
<stop offset="1" stop-color="#2B7FFF"/>
</linearGradient>
<linearGradient gradientUnits="userSpaceOnUse" id="paint39_linear_3_413" x1="526.517" x2="526.517" y1="232.665" y2="640.519">
<stop stop-color="#EFF6FF"/>
<stop offset="1" stop-color="#2B7FFF"/>
</linearGradient>
<linearGradient gradientUnits="userSpaceOnUse" id="paint40_linear_3_413" x1="525.319" x2="525.319" y1="217.766" y2="654.088">
<stop stop-color="#EFF6FF"/>
<stop offset="1" stop-color="#2B7FFF"/>
</linearGradient>
<linearGradient gradientUnits="userSpaceOnUse" id="paint41_linear_3_413" x1="523.325" x2="523.325" y1="201.803" y2="667.656">
<stop stop-color="#EFF6FF"/>
<stop offset="1" stop-color="#2B7FFF"/>
</linearGradient>
<linearGradient gradientUnits="userSpaceOnUse" id="paint42_linear_3_413" x1="520.797" x2="520.797" y1="184.776" y2="681.757">
<stop stop-color="#EFF6FF"/>
<stop offset="1" stop-color="#2B7FFF"/>
</linearGradient>
<linearGradient gradientUnits="userSpaceOnUse" id="paint43_linear_3_413" x1="517.339" x2="517.339" y1="166.685" y2="696.124">
<stop stop-color="#EFF6FF"/>
<stop offset="1" stop-color="#2B7FFF"/>
</linearGradient>
<linearGradient gradientUnits="userSpaceOnUse" id="paint44_linear_3_413" x1="512.949" x2="512.949" y1="147.263" y2="710.49">
<stop stop-color="#EFF6FF"/>
<stop offset="1" stop-color="#2B7FFF"/>
</linearGradient>
<linearGradient gradientUnits="userSpaceOnUse" id="paint45_linear_3_413" x1="507.628" x2="507.628" y1="126.511" y2="724.857">
<stop stop-color="#EFF6FF"/>
<stop offset="1" stop-color="#2B7FFF"/>
</linearGradient>
<linearGradient gradientUnits="userSpaceOnUse" id="paint46_linear_3_413" x1="500.977" x2="500.977" y1="104.695" y2="739.49">
<stop stop-color="#EFF6FF"/>
<stop offset="1" stop-color="#2B7FFF"/>
</linearGradient>
<linearGradient gradientUnits="userSpaceOnUse" id="paint47_linear_3_413" x1="492.862" x2="492.862" y1="81.2828" y2="753.857">
<stop stop-color="#EFF6FF"/>
<stop offset="1" stop-color="#2B7FFF"/>
</linearGradient>
<linearGradient gradientUnits="userSpaceOnUse" id="paint48_linear_3_413" x1="483.55" x2="483.55" y1="56.2742" y2="767.957">
<stop stop-color="#EFF6FF"/>
<stop offset="1" stop-color="#2B7FFF"/>
</linearGradient>
<linearGradient gradientUnits="userSpaceOnUse" id="paint49_linear_3_413" x1="472.375" x2="472.375" y1="29.9352" y2="781.526">
<stop stop-color="#EFF6FF"/>
<stop offset="1" stop-color="#2B7FFF"/>
</linearGradient>
<linearGradient gradientUnits="userSpaceOnUse" id="paint50_linear_3_413" x1="459.606" x2="459.606" y1="2" y2="794.828">
<stop stop-color="#EFF6FF"/>
<stop offset="1" stop-color="#2B7FFF"/>
</linearGradient>
</defs>
</svg>