<?xml version="1.0" encoding="utf-8"?>
<svg xmlns="http://www.w3.org/2000/svg" fill="none" width="1000" height="800" viewBox="0 0 1000 800">
<defs>
<linearGradient id="grad" gradientUnits="userSpaceOnUse" x1="80" y1="700" x2="800" y2="50">
<stop stop-color="#DBEAFE" offset="0"/>
<stop stop-color="#2B7FFF" offset="0.5"/>
<stop stop-color="#1D4ED8" offset="1"/>
</linearGradient>
</defs>
<path d="M80 700 Q61.3 674.9 59.5 643.6 Q66.1 609.3 39.0 587.2 Q3.3 568.3 18.4 530.9 Q42.0 490.4 -2.1 474.5 Q-54.6 461.7 -22.6 418.1" stroke="url(#grad)" stroke-width="1.5" fill="none" opacity="0.080"/>
<path d="M80 700 Q61.9 672.6 62.1 639.8 Q71.7 604.3 44.7 579.5 Q8.8 557.1 27.8 519.0 Q56.2 478.3 11.4 458.3 Q-42.3 440.7 -4.4 397.6" stroke="url(#grad)" stroke-width="1.5" fill="none" opacity="0.090"/>
<path d="M80 700 Q62.8 670.3 65.1 636.1 Q77.8 599.7 51.3 572.0 Q15.5 546.1 38.5 507.6 Q72.0 467.2 26.9 443.0 Q-27.6 420.4 16.3 378.2" stroke="url(#grad)" stroke-width="1.5" fill="none" opacity="0.100"/>
<path d="M80 700 Q63.8 668.1 68.5 632.6 Q84.5 595.4 58.7 564.9 Q23.3 535.4 50.6 496.9 Q89.3 457.3 44.2 428.8 Q-10.6 400.8 39.5 360.4" stroke="url(#grad)" stroke-width="1.5" fill="none" opacity="0.110"/>
<path d="M80 700 Q65.1 665.8 72.3 629.2 Q91.7 591.7 66.9 558.2 Q32.2 525.1 63.9 487.0 Q108.0 448.7 63.3 415.7 Q8.7 382.3 65.1 344.3" stroke="url(#grad)" stroke-width="1.5" fill="none" opacity="0.120"/>
<path d="M80 700 Q66.6 663.6 76.4 626.1 Q99.4 588.4 75.9 552.1 Q42.2 515.3 78.5 478.0 Q127.9 441.7 84.1 404.0 Q30.3 365.1 92.9 330.2" stroke="url(#grad)" stroke-width="1.5" fill="none" opacity="0.130"/>
<path d="M80 700 Q68.2 661.5 80.9 623.2 Q107.6 585.7 85.6 546.5 Q53.3 506.0 94.1 470.0 Q149.0 436.2 106.6 394.0 Q54.0 349.4 122.8 318.4" stroke="url(#grad)" stroke-width="1.5" fill="none" opacity="0.140"/>
<path d="M80 700 Q70.1 659.4 85.7 620.6 Q116.2 583.7 96.0 541.6 Q65.4 497.4 110.9 463.2 Q171.2 432.5 130.5 385.6 Q79.8 335.4 154.6 309.0" stroke="url(#grad)" stroke-width="1.5" fill="none" opacity="0.150"/>
<path d="M80 700 Q72.2 657.4 90.8 618.3 Q125.2 582.2 107.0 537.4 Q78.6 489.6 128.7 457.6 Q194.2 430.7 155.7 379.2 Q107.5 323.3 188.0 302.4" stroke="url(#grad)" stroke-width="1.5" fill="none" opacity="0.160"/>
<path d="M80 700 Q74.4 655.5 96.2 616.4 Q134.6 581.5 118.7 534.0 Q92.7 482.7 147.4 453.4 Q217.9 430.9 182.1 374.9 Q136.9 313.4 222.9 298.7" stroke="url(#grad)" stroke-width="1.5" fill="none" opacity="0.170"/>
<path d="M80 700 Q76.9 653.8 101.9 614.8 Q144.2 581.5 130.9 531.5 Q107.7 476.8 166.8 450.7 Q242.2 433.1 209.6 372.7 Q167.9 305.9 259.0 298.0" stroke="url(#grad)" stroke-width="1.5" fill="none" opacity="0.180"/>
<path d="M80 700 Q79.5 652.2 107.8 613.6 Q154.0 582.3 143.5 529.9 Q123.5 471.9 187.0 449.5 Q266.9 437.5 237.8 372.9 Q200.4 300.8 295.9 300.6" stroke="url(#grad)" stroke-width="1.5" fill="none" opacity="0.190"/>
<path d="M80 700 Q82.3 650.7 114.0 612.8 Q164.0 583.9 156.6 529.2 Q140.1 468.1 207.7 449.9 Q291.7 444.1 266.7 375.5 Q234.0 298.5 333.5 306.6" stroke="url(#grad)" stroke-width="1.5" fill="none" opacity="0.200"/>
<path d="M80 700 Q85.3 649.4 120.3 612.4 Q174.1 586.2 170.0 529.5 Q157.4 465.5 228.8 452.0 Q316.6 452.9 296.1 380.6 Q268.7 299.0 371.4 316.1" stroke="url(#grad)" stroke-width="1.5" fill="none" opacity="0.210"/>
<path d="M80 700 Q88.5 648.3 126.8 612.5 Q184.2 589.4 183.7 530.9 Q175.2 464.3 250.2 455.9 Q341.2 464.1 325.6 388.3 Q304.0 302.4 409.3 329.1" stroke="url(#grad)" stroke-width="1.5" fill="none" opacity="0.220"/>
<path d="M80 700 Q91.7 647.3 133.4 613.1 Q194.3 593.5 197.6 533.3 Q193.5 464.3 271.7 461.5 Q365.4 477.6 355.1 398.7 Q339.9 308.9 446.9 345.7" stroke="url(#grad)" stroke-width="1.5" fill="none" opacity="0.230"/>
<path d="M80 700 Q95.2 646.6 140.2 614.2 Q204.3 598.4 211.6 536.8 Q212.2 465.8 293.3 469.0 Q389.0 493.4 384.4 411.8 Q375.9 318.6 483.7 366.0" stroke="url(#grad)" stroke-width="1.5" fill="none" opacity="0.240"/>
<path d="M80 700 Q98.7 646.1 147.0 615.8 Q214.1 604.2 225.6 541.5 Q231.2 468.7 314.7 478.4 Q411.7 511.4 413.2 427.5 Q412.0 331.5 519.6 389.9" stroke="url(#grad)" stroke-width="1.5" fill="none" opacity="0.250"/>
<path d="M80 700 Q102.3 645.9 153.8 617.9 Q223.6 610.8 239.5 547.3 Q250.4 473.2 335.8 489.6 Q433.5 531.7 441.2 446.0 Q447.6 347.7 554.1 417.4" stroke="url(#grad)" stroke-width="1.5" fill="none" opacity="0.260"/>
<path d="M80 700 Q106.1 645.9 160.5 620.5 Q232.9 618.3 253.2 554.2 Q269.6 479.1 356.4 502.7 Q453.9 554.2 468.3 467.1 Q482.7 367.2 587.0 448.3" stroke="url(#grad)" stroke-width="1.5" fill="none" opacity="0.270"/>
<path d="M80 700 Q109.9 646.1 167.3 623.6 Q241.8 626.6 266.7 562.3 Q288.7 486.6 376.4 517.7 Q472.9 578.8 494.2 490.8 Q516.9 390.0 617.8 482.7" stroke="url(#grad)" stroke-width="1.5" fill="none" opacity="0.280"/>
<path d="M80 700 Q113.8 646.6 173.9 627.3 Q250.2 635.7 279.9 571.6 Q307.7 495.7 395.6 534.4 Q490.3 605.4 518.6 517.1 Q549.8 416.0 646.2 520.4" stroke="url(#grad)" stroke-width="1.5" fill="none" opacity="0.290"/>
<path d="M80 700 Q117.7 647.3 180.4 631.4 Q258.1 645.6 292.6 581.9 Q326.4 506.4 413.9 553.0 Q505.8 633.8 541.3 545.8 Q581.2 445.2 671.9 561.2" stroke="url(#grad)" stroke-width="1.5" fill="none" opacity="0.300"/>
<path d="M80 700 Q121.6 648.4 186.8 636.2 Q265.5 656.3 304.8 593.4 Q344.6 518.6 431.0 573.3 Q519.3 664.1 562.1 576.9 Q610.9 477.5 694.7 604.8" stroke="url(#grad)" stroke-width="1.5" fill="none" opacity="0.310"/>
<path d="M80 700 Q125.5 649.7 192.9 641.4 Q272.1 667.7 316.4 606.0 Q362.2 532.4 447.0 595.3 Q530.6 695.9 580.8 610.2 Q638.4 512.8 714.1 651.2" stroke="url(#grad)" stroke-width="1.5" fill="none" opacity="0.320"/>
<path d="M80 700 Q129.5 651.3 198.8 647.1 Q278.1 679.8 327.3 619.7 Q379.2 547.8 461.5 618.9 Q539.5 729.2 597.2 645.6 Q663.6 550.9 730.0 700.0" stroke="url(#grad)" stroke-width="1.5" fill="none" opacity="0.330"/>
<path d="M80 700 Q133.4 653.2 204.3 653.4 Q283.3 692.5 337.3 634.3 Q395.3 564.6 474.4 644.0 Q545.9 763.8 610.9 682.9 Q686.1 591.8 742.0 750.9" stroke="url(#grad)" stroke-width="1.5" fill="none" opacity="0.340"/>
<path d="M80 700 Q137.2 655.4 209.6 660.1 Q287.6 705.8 346.5 649.9 Q410.5 582.9 485.7 670.5 Q549.7 799.5 622.0 722.0 Q705.7 635.2 750.0 803.7" stroke="url(#grad)" stroke-width="1.5" fill="none" opacity="0.350"/>
<path d="M80 700 Q141.0 657.8 214.5 667.3 Q291.1 719.6 354.8 666.5 Q424.6 602.6 495.2 698.3 Q550.6 836.0 630.1 762.5 Q722.2 680.9 753.7 858.0" stroke="url(#grad)" stroke-width="1.5" fill="none" opacity="0.360"/>
<path d="M80 700 Q144.6 660.6 219.0 674.9 Q293.6 733.9 361.9 683.8 Q437.6 623.7 502.7 727.2 Q548.7 873.1 635.1 804.3 Q735.3 728.7 753.0 913.5" stroke="url(#grad)" stroke-width="1.5" fill="none" opacity="0.370"/>
<path d="M80 700 Q148.2 663.6 223.0 682.9 Q295.1 748.6 368.0 702.0 Q449.2 646.1 508.2 757.1 Q543.9 910.7 636.9 847.1 Q744.8 778.3 747.6 969.7" stroke="url(#grad)" stroke-width="1.5" fill="none" opacity="0.380"/>
<path d="M80 700 Q151.6 666.9 226.5 691.4 Q295.6 763.7 372.9 720.9 Q459.5 669.6 511.5 788.0 Q535.9 948.5 635.3 890.8 Q750.5 829.4 737.5 1026.4" stroke="url(#grad)" stroke-width="1.5" fill="none" opacity="0.390"/>
<path d="M80 700 Q154.8 670.5 229.6 700.2 Q295.0 779.0 376.5 740.4 Q468.2 694.3 512.6 819.5 Q524.9 986.2 630.3 935.0 Q752.3 881.8 722.5 1083.0" stroke="url(#grad)" stroke-width="1.5" fill="none" opacity="0.400"/>
<path d="M80 700 Q157.9 674.3 232.1 709.4 Q293.4 794.5 378.7 760.5 Q475.3 720.0 511.3 851.6 Q510.8 1023.6 621.8 979.4 Q749.9 935.1 702.7 1139.2" stroke="url(#grad)" stroke-width="1.5" fill="none" opacity="0.410"/>
<path d="M80 700 Q160.8 678.4 234.1 718.8 Q290.6 810.1 379.7 781.0 Q480.7 746.5 507.7 884.0 Q493.6 1060.4 609.7 1023.8 Q743.2 989.0 677.9 1194.6" stroke="url(#grad)" stroke-width="1.5" fill="none" opacity="0.420"/>
<path d="M80 700 Q163.5 682.8 235.4 728.5 Q286.7 825.8 379.1 801.8 Q484.2 773.9 501.6 916.7 Q473.2 1096.3 593.9 1067.9 Q732.2 1043.3 648.3 1248.8" stroke="url(#grad)" stroke-width="1.5" fill="none" opacity="0.430"/>
<path d="M80 700 Q165.9 687.4 236.1 738.5 Q281.6 841.3 377.2 823.0 Q485.9 801.9 493.0 949.3 Q449.8 1131.2 574.4 1111.4 Q716.8 1097.4 613.8 1301.2" stroke="url(#grad)" stroke-width="1.5" fill="none" opacity="0.440"/>
<path d="M80 700 Q168.1 692.2 236.2 748.6 Q275.3 856.8 373.7 844.3 Q485.7 830.4 481.8 981.8 Q423.3 1164.7 551.4 1153.9 Q696.9 1151.1 574.6 1351.6" stroke="url(#grad)" stroke-width="1.5" fill="none" opacity="0.450"/>
<path d="M80 700 Q170.0 697.2 235.6 758.9 Q267.9 872.0 368.7 865.6 Q483.4 859.4 468.2 1013.9 Q393.9 1196.6 524.7 1195.3 Q672.5 1204.0 530.7 1399.4" stroke="url(#grad)" stroke-width="1.5" fill="none" opacity="0.460"/>
<path d="M80 700 Q171.6 702.4 234.4 769.3 Q259.3 886.9 362.1 886.9 Q479.1 888.6 452.0 1045.4 Q361.6 1226.6 494.4 1235.1 Q643.6 1255.7 482.4 1444.2" stroke="url(#grad)" stroke-width="1.5" fill="none" opacity="0.470"/>
<path d="M80 700 Q172.9 707.8 232.4 779.7 Q249.5 901.4 354.0 908.0 Q472.6 917.9 433.2 1076.1 Q326.6 1254.6 460.7 1273.0 Q610.2 1305.9 429.8 1485.6" stroke="url(#grad)" stroke-width="1.5" fill="none" opacity="0.480"/>
<path d="M80 700 Q173.9 713.4 229.8 790.1 Q238.7 915.4 344.3 928.8 Q464.0 947.1 412.0 1105.9 Q289.0 1280.1 423.7 1308.9 Q572.6 1354.1 373.2 1523.4" stroke="url(#grad)" stroke-width="1.5" fill="none" opacity="0.490"/>
<path d="M80 700 Q174.6 719.1 226.4 800.5 Q226.7 928.8 333.1 949.2 Q453.3 976.2 388.3 1134.5 Q249.0 1303.1 383.4 1342.4 Q530.6 1400.1 312.8 1556.9" stroke="url(#grad)" stroke-width="1.5" fill="none" opacity="0.500"/>
<path d="M80 700 Q174.9 724.9 222.3 810.9 Q213.6 941.5 320.3 969.1 Q440.3 1004.9 362.3 1161.7 Q206.8 1323.2 340.0 1373.1 Q484.6 1443.3 249.0 1586.0" stroke="url(#grad)" stroke-width="1.5" fill="none" opacity="0.510"/>
<path d="M80 700 Q174.9 730.8 217.5 821.1 Q199.4 953.5 306.0 988.4 Q425.2 1033.1 333.9 1187.4 Q162.5 1340.3 293.8 1400.9 Q434.6 1483.6 182.1 1610.3" stroke="url(#grad)" stroke-width="1.5" fill="none" opacity="0.520"/>
<path d="M80 700 Q174.5 736.8 212.0 831.1 Q184.3 964.7 290.2 1006.9 Q408.0 1060.5 303.4 1211.3 Q116.3 1354.3 244.8 1425.5 Q380.8 1520.4 112.5 1629.4" stroke="url(#grad)" stroke-width="1.5" fill="none" opacity="0.530"/>
<path d="M80 700 Q173.7 742.9 205.7 840.8 Q168.2 975.0 272.9 1024.6 Q388.6 1087.2 270.7 1233.3 Q68.6 1364.8 193.5 1446.6 Q323.5 1553.6 40.5 1643.2" stroke="url(#grad)" stroke-width="1.5" fill="none" opacity="0.540"/>
<path d="M80 700 Q172.5 749.0 198.8 850.3 Q151.2 984.2 254.2 1041.3 Q367.1 1112.8 236.1 1253.2 Q19.5 1371.8 139.9 1464.1 Q263.0 1582.7 -33.4 1651.3" stroke="url(#grad)" stroke-width="1.5" fill="none" opacity="0.550"/>
<path d="M80 700 Q171.0 755.1 191.2 859.5 Q133.4 992.4 234.2 1056.9 Q343.6 1137.3 199.7 1270.8 Q-30.6 1375.2 84.3 1477.6 Q199.4 1607.5 -108.8 1653.5" stroke="url(#grad)" stroke-width="1.5" fill="none" opacity="0.560"/>
<path d="M80 700 Q169.0 761.1 182.9 868.2 Q114.8 999.5 212.8 1071.4 Q318.1 1160.4 161.5 1286.0 Q-81.6 1374.7 27.2 1487.0 Q133.3 1627.6 -185.2 1649.7" stroke="url(#grad)" stroke-width="1.5" fill="none" opacity="0.570"/>
<path d="M80 700 Q166.7 767.2 173.9 876.6 Q95.6 1005.4 190.3 1084.5 Q290.7 1182.1 121.9 1298.5 Q-133.0 1370.3 -31.3 1492.2 Q64.8 1642.9 -262.0 1639.7" stroke="url(#grad)" stroke-width="1.5" fill="none" opacity="0.580"/>
<path d="M80 700 Q163.9 773.1 164.3 884.5 Q75.7 1010.0 166.5 1096.3 Q261.5 1202.1 80.8 1308.4 Q-184.6 1362.0 -90.9 1493.0 Q-5.7 1653.1 -338.9 1623.4" stroke="url(#grad)" stroke-width="1.5" fill="none" opacity="0.590"/>
<path d="M80 700 Q160.8 779.0 154.1 891.8 Q55.2 1013.2 141.8 1106.5 Q230.5 1220.4 38.7 1315.4 Q-236.2 1349.6 -151.1 1489.3 Q-77.8 1658.0 -415.2 1600.8" stroke="url(#grad)" stroke-width="1.5" fill="none" opacity="0.600"/>
<path d="M80 700 Q157.2 784.8 143.3 898.6 Q34.4 1015.2 116.0 1115.2 Q198.0 1236.7 -4.4 1319.5 Q-287.3 1333.3 -211.7 1480.9 Q-151.0 1657.4 -490.6 1571.9" stroke="url(#grad)" stroke-width="1.5" fill="none" opacity="0.610"/>
<path d="M80 700 Q153.3 790.4 132.0 904.7 Q13.1 1015.7 89.4 1122.3 Q163.9 1251.0 -48.3 1320.5 Q-337.6 1312.8 -272.2 1467.9 Q-225.0 1651.1 -564.3 1536.7" stroke="url(#grad)" stroke-width="1.5" fill="none" opacity="0.620"/>
</svg>