<?xml version="1.0" encoding="utf-8"?>
<svg xmlns="http://www.w3.org/2000/svg" fill="none" width="650" height="650" viewBox="0 0 650 650">
<path d="M326.6 307.1 L332.3 313.9 Q342.9 326.6 337.2 319.7 L336.1 332.3 Q323.4 342.9 330.3 337.2 L317.7 336.1 Q307.1 323.4 312.8 330.3 L313.9 317.7 Q326.6 307.1 319.7 312.8Z" stroke="#3B82F6" stroke-width="0.3" fill="none" opacity="0.16"/>
<path d="M329.5 299.4 L336.9 309.9 Q350.6 329.5 343.2 319.0 L340.1 336.9 Q320.5 350.6 331.0 343.2 L313.1 340.1 Q299.4 320.5 306.8 331.0 L309.9 313.1 Q329.5 299.4 319.0 306.8Z" stroke="#3B82F6" stroke-width="0.3" fill="none" opacity="0.18"/>
<path d="M333.8 292.2 L342.2 306.7 Q357.8 333.8 349.4 319.2 L343.3 342.2 Q316.2 357.8 330.8 349.4 L307.8 343.3 Q292.2 316.2 300.6 330.8 L306.7 307.8 Q333.8 292.2 319.2 300.6Z" stroke="#3B82F6" stroke-width="0.3" fill="none" opacity="0.20"/>
<path d="M339.4 285.5 L348.2 304.4 Q364.5 339.4 355.7 320.5 L345.6 348.2 Q310.6 364.5 329.5 355.7 L301.8 345.6 Q285.5 310.6 294.3 329.5 L304.4 301.8 Q339.4 285.5 320.5 294.3Z" stroke="#3B82F6" stroke-width="0.3" fill="none" opacity="0.21"/>
<path d="M346.1 279.7 L354.6 302.9 Q370.3 346.1 361.9 322.9 L347.1 354.6 Q303.9 370.3 327.1 361.9 L295.4 347.1 Q279.7 303.9 288.1 327.1 L302.9 295.4 Q346.1 279.7 322.9 288.1Z" stroke="#3B82F6" stroke-width="0.3" fill="none" opacity="0.22"/>
<path d="M354.0 274.8 L361.4 302.5 Q375.2 354.0 367.8 326.3 L347.5 361.4 Q296.0 375.2 323.7 367.8 L288.6 347.5 Q274.8 296.0 282.2 323.7 L302.5 288.6 Q354.0 274.8 326.3 282.2Z" stroke="#3B82F6" stroke-width="0.3" fill="none" opacity="0.24"/>
<path d="M362.9 270.9 L368.5 303.1 Q379.1 362.9 373.4 330.7 L346.9 368.5 Q287.1 379.1 319.3 373.4 L281.5 346.9 Q270.9 287.1 276.6 319.3 L303.1 281.5 Q362.9 270.9 330.7 276.6Z" stroke="#3B82F6" stroke-width="0.3" fill="none" opacity="0.26"/>
<path d="M372.6 268.3 L375.8 304.8 Q381.7 372.6 378.5 336.1 L345.2 375.8 Q277.4 381.7 313.9 378.5 L274.2 345.2 Q268.3 277.4 271.5 313.9 L304.8 274.2 Q372.6 268.3 336.1 271.5Z" stroke="#3B82F6" stroke-width="0.3" fill="none" opacity="0.27"/>
<path d="M383.0 267.0 L383.0 307.6 Q383.0 383.0 383.0 342.4 L342.4 383.0 Q267.0 383.0 307.6 383.0 L267.0 342.4 Q267.0 267.0 267.0 307.6 L307.6 267.0 Q383.0 267.0 342.4 267.0Z" stroke="#3B82F6" stroke-width="0.3" fill="none" opacity="0.29"/>
<path d="M393.9 267.1 L390.1 311.5 Q382.9 393.9 386.7 349.6 L338.5 390.1 Q256.1 382.9 300.4 386.7 L259.9 338.5 Q267.1 256.1 263.3 300.4 L311.5 259.9 Q393.9 267.1 349.6 263.3Z" stroke="#3B82F6" stroke-width="0.3" fill="none" opacity="0.30"/>
<path d="M405.3 268.8 L396.9 316.6 Q381.2 405.3 389.6 357.5 L333.4 396.9 Q244.7 381.2 292.5 389.6 L253.1 333.4 Q268.8 244.7 260.4 292.5 L316.6 253.1 Q405.3 268.8 357.5 260.4Z" stroke="#3B82F6" stroke-width="0.3" fill="none" opacity="0.32"/>
<path d="M416.8 272.0 L403.2 322.7 Q378.0 416.8 391.6 366.1 L327.3 403.2 Q233.2 378.0 283.9 391.6 L246.8 327.3 Q272.0 233.2 258.4 283.9 L322.7 246.8 Q416.8 272.0 366.1 258.4Z" stroke="#3B82F6" stroke-width="0.3" fill="none" opacity="0.33"/>
<path d="M428.3 276.8 L409.0 329.8 Q373.2 428.3 392.5 375.3 L320.2 409.0 Q221.7 373.2 274.7 392.5 L241.0 320.2 Q276.8 221.7 257.5 274.7 L329.8 241.0 Q428.3 276.8 375.3 257.5Z" stroke="#3B82F6" stroke-width="0.3" fill="none" opacity="0.34"/>
<path d="M439.6 283.3 L414.1 338.0 Q366.7 439.6 392.2 384.9 L312.0 414.1 Q210.4 366.7 265.1 392.2 L235.9 312.0 Q283.3 210.4 257.8 265.1 L338.0 235.9 Q439.6 283.3 384.9 257.8Z" stroke="#3B82F6" stroke-width="0.3" fill="none" opacity="0.36"/>
<path d="M450.6 291.4 L418.4 347.1 Q358.6 450.6 390.8 394.8 L302.9 418.4 Q199.4 358.6 255.2 390.8 L231.6 302.9 Q291.4 199.4 259.2 255.2 L347.1 231.6 Q450.6 291.4 394.8 259.2Z" stroke="#3B82F6" stroke-width="0.3" fill="none" opacity="0.38"/>
<path d="M460.9 301.0 L421.7 357.0 Q349.0 460.9 388.1 405.0 L293.0 421.7 Q189.1 349.0 245.0 388.1 L228.3 293.0 Q301.0 189.1 261.9 245.0 L357.0 228.3 Q460.9 301.0 405.0 261.9Z" stroke="#3B82F6" stroke-width="0.3" fill="none" opacity="0.39"/>
<path d="M470.4 312.3 L424.0 367.6 Q337.7 470.4 384.2 415.1 L282.4 424.0 Q179.6 337.7 234.9 384.2 L226.0 282.4 Q312.3 179.6 265.8 234.9 L367.6 226.0 Q470.4 312.3 415.1 265.8Z" stroke="#3B82F6" stroke-width="0.3" fill="none" opacity="0.41"/>
<path d="M479.0 325.0 L425.1 378.9 Q325.0 479.0 378.9 425.1 L271.1 425.1 Q171.0 325.0 224.9 378.9 L224.9 271.1 Q325.0 171.0 271.1 224.9 L378.9 224.9 Q479.0 325.0 425.1 271.1Z" stroke="#3B82F6" stroke-width="0.3" fill="none" opacity="0.42"/>
<path d="M486.4 339.1 L425.0 390.7 Q310.9 486.4 372.3 434.8 L259.3 425.0 Q163.6 310.9 215.2 372.3 L225.0 259.3 Q339.1 163.6 277.7 215.2 L390.7 225.0 Q486.4 339.1 434.8 277.7Z" stroke="#3B82F6" stroke-width="0.3" fill="none" opacity="0.43"/>
<path d="M492.4 354.5 L423.5 402.8 Q295.5 492.4 364.4 444.2 L247.2 423.5 Q157.6 295.5 205.8 364.4 L226.5 247.2 Q354.5 157.6 285.6 205.8 L402.8 226.5 Q492.4 354.5 444.2 285.6Z" stroke="#3B82F6" stroke-width="0.3" fill="none" opacity="0.45"/>
<path d="M496.9 371.1 L420.6 415.1 Q278.9 496.9 355.2 452.9 L234.9 420.6 Q153.1 278.9 197.1 355.2 L229.4 234.9 Q371.1 153.1 294.8 197.1 L415.1 229.4 Q496.9 371.1 452.9 294.8Z" stroke="#3B82F6" stroke-width="0.3" fill="none" opacity="0.46"/>
<path d="M499.8 388.6 L416.3 427.5 Q261.4 499.8 344.8 460.9 L222.5 416.3 Q150.2 261.4 189.1 344.8 L233.7 222.5 Q388.6 150.2 305.2 189.1 L427.5 233.7 Q499.8 388.6 460.9 305.2Z" stroke="#3B82F6" stroke-width="0.3" fill="none" opacity="0.48"/>
<path d="M500.8 407.0 L410.6 439.8 Q243.0 500.8 333.2 468.0 L210.2 410.6 Q149.2 243.0 182.0 333.2 L239.4 210.2 Q407.0 149.2 316.8 182.0 L439.8 239.4 Q500.8 407.0 468.0 316.8Z" stroke="#3B82F6" stroke-width="0.3" fill="none" opacity="0.49"/>
<path d="M499.9 426.0 L403.4 451.9 Q224.0 499.9 320.6 474.1 L198.1 403.4 Q150.1 224.0 175.9 320.6 L246.6 198.1 Q426.0 150.1 329.4 175.9 L451.9 246.6 Q499.9 426.0 474.1 329.4Z" stroke="#3B82F6" stroke-width="0.3" fill="none" opacity="0.51"/>
<path d="M497.0 445.5 L394.7 463.5 Q204.5 497.0 306.9 479.0 L186.5 394.7 Q153.0 204.5 171.0 306.9 L255.3 186.5 Q445.5 153.0 343.1 171.0 L463.5 255.3 Q497.0 445.5 479.0 343.1Z" stroke="#3B82F6" stroke-width="0.3" fill="none" opacity="0.53"/>
<path d="M492.0 465.1 L384.5 474.5 Q184.9 492.0 292.4 482.6 L175.5 384.5 Q158.0 184.9 167.4 292.4 L265.5 175.5 Q465.1 158.0 357.6 167.4 L474.5 265.5 Q492.0 465.1 482.6 357.6Z" stroke="#3B82F6" stroke-width="0.3" fill="none" opacity="0.54"/>
<path d="M484.8 484.8 L372.9 484.8 Q165.2 484.8 277.1 484.8 L165.2 372.9 Q165.2 165.2 165.2 277.1 L277.1 165.2 Q484.8 165.2 372.9 165.2 L484.8 277.1 Q484.8 484.8 484.8 372.9Z" stroke="#3B82F6" stroke-width="0.3" fill="none" opacity="0.56"/>
<path d="M475.4 504.3 L360.0 494.2 Q145.7 475.4 261.1 485.5 L155.8 360.0 Q174.6 145.7 164.5 261.1 L290.0 155.8 Q504.3 174.6 388.9 164.5 L494.2 290.0 Q475.4 504.3 485.5 388.9Z" stroke="#3B82F6" stroke-width="0.3" fill="none" opacity="0.57"/>
<path d="M463.8 523.2 L345.8 502.4 Q126.8 463.8 244.7 484.6 L147.6 345.8 Q186.2 126.8 165.4 244.7 L304.2 147.6 Q523.2 186.2 405.3 165.4 L502.4 304.2 Q463.8 523.2 484.6 405.3Z" stroke="#3B82F6" stroke-width="0.3" fill="none" opacity="0.58"/>
<path d="M450.0 541.5 L330.5 509.5 Q108.5 450.0 228.0 482.0 L140.5 330.5 Q200.0 108.5 168.0 228.0 L319.5 140.5 Q541.5 200.0 422.0 168.0 L509.5 319.5 Q450.0 541.5 482.0 422.0Z" stroke="#3B82F6" stroke-width="0.3" fill="none" opacity="0.60"/>
<path d="M434.0 558.8 L314.0 515.2 Q91.2 434.0 211.2 477.7 L134.8 314.0 Q216.0 91.2 172.3 211.2 L336.0 134.8 Q558.8 216.0 438.8 172.3 L515.2 336.0 Q434.0 558.8 477.7 438.8Z" stroke="#3B82F6" stroke-width="0.3" fill="none" opacity="0.61"/>
<path d="M416.0 575.0 L296.6 519.3 Q75.0 416.0 194.4 471.6 L130.7 296.6 Q234.0 75.0 178.4 194.4 L353.4 130.7 Q575.0 234.0 455.6 178.4 L519.3 353.4 Q416.0 575.0 471.6 455.6Z" stroke="#3B82F6" stroke-width="0.3" fill="none" opacity="0.63"/>
<path d="M395.9 589.7 L278.5 521.9 Q60.3 395.9 177.8 463.7 L128.1 278.5 Q254.1 60.3 186.3 177.8 L371.5 128.1 Q589.7 254.1 472.2 186.3 L521.9 371.5 Q395.9 589.7 463.7 472.2Z" stroke="#3B82F6" stroke-width="0.3" fill="none" opacity="0.64"/>
<path d="M374.0 602.7 L259.6 522.7 Q47.3 374.0 161.6 454.0 L127.3 259.6 Q276.0 47.3 196.0 161.6 L390.4 127.3 Q602.7 276.0 488.4 196.0 L522.7 390.4 Q374.0 602.7 454.0 488.4Z" stroke="#3B82F6" stroke-width="0.3" fill="none" opacity="0.66"/>
<path d="M350.3 613.9 L240.3 521.6 Q36.1 350.3 146.1 442.5 L128.4 240.3 Q299.7 36.1 207.5 146.1 L409.7 128.4 Q613.9 299.7 503.9 207.5 L521.6 409.7 Q350.3 613.9 442.5 503.9Z" stroke="#3B82F6" stroke-width="0.3" fill="none" opacity="0.68"/>
<path d="M325.0 623.0 L220.7 518.7 Q27.0 325.0 131.3 429.3 L131.3 220.7 Q325.0 27.0 220.7 131.3 L429.3 131.3 Q623.0 325.0 518.7 220.7 L518.7 429.3 Q325.0 623.0 429.3 518.7Z" stroke="#3B82F6" stroke-width="0.3" fill="none" opacity="0.69"/>
<path d="M298.3 629.8 L201.0 513.8 Q20.2 298.3 117.5 414.4 L136.2 201.0 Q351.7 20.2 235.6 117.5 L449.0 136.2 Q629.8 351.7 532.5 235.6 L513.8 449.0 Q298.3 629.8 414.4 532.5Z" stroke="#3B82F6" stroke-width="0.3" fill="none" opacity="0.71"/>
<path d="M270.5 634.2 L181.3 506.9 Q15.8 270.5 104.9 397.8 L143.1 181.3 Q379.5 15.8 252.2 104.9 L468.7 143.1 Q634.2 379.5 545.1 252.2 L506.9 468.7 Q270.5 634.2 397.8 545.1Z" stroke="#3B82F6" stroke-width="0.3" fill="none" opacity="0.72"/>
<path d="M241.7 636.0 L162.0 498.0 Q14.0 241.7 93.7 379.7 L152.0 162.0 Q408.3 14.0 270.3 93.7 L488.0 152.0 Q636.0 408.3 556.3 270.3 L498.0 488.0 Q241.7 636.0 379.7 556.3Z" stroke="#3B82F6" stroke-width="0.3" fill="none" opacity="0.73"/>
<path d="M212.1 635.1 L143.1 487.1 Q14.9 212.1 83.9 360.2 L162.9 143.1 Q437.9 14.9 289.8 83.9 L506.9 162.9 Q635.1 437.9 566.1 289.8 L487.1 506.9 Q212.1 635.1 360.2 566.1Z" stroke="#3B82F6" stroke-width="0.3" fill="none" opacity="0.75"/>
</svg>